<svg width="266" height="180" viewBox="0 0 266 180" fill="none" xmlns="http://www.w3.org/2000/svg">
<rect width="265.13" height="180" rx="5" fill="#D1DAE6"/>
<path d="M59.7077 65.2031V78H57.0709V67.2686H51.9293V78H49.2926V65.2031H59.7077ZM61.4479 73.3418V73.1572C61.4479 72.46 61.5475 71.8184 61.7467 71.2324C61.9459 70.6406 62.236 70.1279 62.6168 69.6943C62.9977 69.2607 63.4664 68.9238 64.0231 68.6836C64.5797 68.4375 65.2184 68.3145 65.9391 68.3145C66.6598 68.3145 67.3014 68.4375 67.8639 68.6836C68.4264 68.9238 68.8981 69.2607 69.2789 69.6943C69.6657 70.1279 69.9586 70.6406 70.1579 71.2324C70.3571 71.8184 70.4567 72.46 70.4567 73.1572V73.3418C70.4567 74.0332 70.3571 74.6748 70.1579 75.2666C69.9586 75.8525 69.6657 76.3652 69.2789 76.8047C68.8981 77.2383 68.4293 77.5752 67.8727 77.8154C67.3161 78.0557 66.6774 78.1758 65.9567 78.1758C65.236 78.1758 64.5944 78.0557 64.0319 77.8154C63.4752 77.5752 63.0036 77.2383 62.6168 76.8047C62.236 76.3652 61.9459 75.8525 61.7467 75.2666C61.5475 74.6748 61.4479 74.0332 61.4479 73.3418ZM63.9791 73.1572V73.3418C63.9791 73.7402 64.0143 74.1123 64.0846 74.458C64.1549 74.8037 64.2663 75.1084 64.4186 75.3721C64.5768 75.6299 64.7819 75.832 65.0338 75.9785C65.2858 76.125 65.5934 76.1982 65.9567 76.1982C66.3082 76.1982 66.61 76.125 66.862 75.9785C67.1139 75.832 67.3161 75.6299 67.4684 75.3721C67.6207 75.1084 67.7321 74.8037 67.8024 74.458C67.8786 74.1123 67.9166 73.7402 67.9166 73.3418V73.1572C67.9166 72.7705 67.8786 72.4072 67.8024 72.0674C67.7321 71.7217 67.6178 71.417 67.4596 71.1533C67.3073 70.8838 67.1051 70.6729 66.8532 70.5205C66.6012 70.3682 66.2965 70.292 65.9391 70.292C65.5817 70.292 65.277 70.3682 65.025 70.5205C64.7789 70.6729 64.5768 70.8838 64.4186 71.1533C64.2663 71.417 64.1549 71.7217 64.0846 72.0674C64.0143 72.4072 63.9791 72.7705 63.9791 73.1572ZM74.7106 68.4902V78H72.1793V68.4902H74.7106ZM80.8893 68.4902L76.7936 74.4404H74.2623L73.9547 72.1025H75.6334L77.6813 68.4902H80.8893ZM77.7955 78L75.4577 73.9834L77.6637 72.7617L81.1881 78H77.7955ZM84.9586 76.9277L87.4811 68.4902H90.1969L86.3737 79.4326C86.2916 79.6729 86.1803 79.9307 86.0397 80.2061C85.9049 80.4814 85.7204 80.7422 85.486 80.9883C85.2575 81.2402 84.9674 81.4453 84.6159 81.6035C84.2702 81.7617 83.8454 81.8408 83.3414 81.8408C83.1012 81.8408 82.9049 81.8262 82.7526 81.7969C82.6002 81.7676 82.4186 81.7266 82.2077 81.6738V79.8193C82.2721 79.8193 82.3395 79.8193 82.4098 79.8193C82.4801 79.8252 82.5475 79.8281 82.612 79.8281C82.9459 79.8281 83.2184 79.79 83.4293 79.7139C83.6403 79.6377 83.8102 79.5205 83.9391 79.3623C84.068 79.21 84.1705 79.0107 84.2467 78.7646L84.9586 76.9277ZM83.9039 68.4902L85.9694 75.3809L86.3297 78.0615L84.6071 78.2461L81.1881 68.4902H83.9039ZM97.6061 68.4902V70.4766H93.0006V68.4902H97.6061ZM93.7301 68.4902V78H91.1989V68.4902H93.7301ZM99.4518 68.4902V78H96.9118V68.4902H99.4518ZM106.536 75.8555V71.6191C106.536 71.3145 106.486 71.0537 106.386 70.8369C106.287 70.6143 106.131 70.4414 105.921 70.3184C105.715 70.1953 105.449 70.1338 105.121 70.1338C104.839 70.1338 104.596 70.1836 104.391 70.2832C104.186 70.377 104.028 70.5146 103.917 70.6963C103.805 70.8721 103.75 71.0801 103.75 71.3203H101.218C101.218 70.916 101.312 70.5322 101.5 70.1689C101.687 69.8057 101.96 69.4863 102.317 69.2109C102.674 68.9297 103.099 68.71 103.591 68.5518C104.089 68.3936 104.646 68.3145 105.261 68.3145C106 68.3145 106.656 68.4375 107.23 68.6836C107.804 68.9297 108.256 69.2988 108.584 69.791C108.918 70.2832 109.085 70.8984 109.085 71.6367V75.7061C109.085 76.2275 109.117 76.6553 109.181 76.9893C109.246 77.3174 109.339 77.6045 109.463 77.8506V78H106.905C106.782 77.7422 106.688 77.4199 106.624 77.0332C106.565 76.6406 106.536 76.248 106.536 75.8555ZM106.87 72.208L106.887 73.6406H105.472C105.138 73.6406 104.848 73.6787 104.602 73.7549C104.356 73.8311 104.154 73.9395 103.996 74.0801C103.838 74.2148 103.72 74.373 103.644 74.5547C103.574 74.7363 103.539 74.9355 103.539 75.1523C103.539 75.3691 103.589 75.5654 103.688 75.7412C103.788 75.9111 103.931 76.0459 104.119 76.1455C104.306 76.2393 104.526 76.2861 104.778 76.2861C105.159 76.2861 105.49 76.21 105.771 76.0576C106.052 75.9053 106.269 75.7178 106.422 75.4951C106.58 75.2725 106.662 75.0615 106.668 74.8623L107.336 75.9346C107.242 76.1748 107.113 76.4238 106.949 76.6816C106.791 76.9395 106.589 77.1826 106.342 77.4111C106.096 77.6338 105.8 77.8184 105.455 77.9648C105.109 78.1055 104.699 78.1758 104.224 78.1758C103.621 78.1758 103.073 78.0557 102.581 77.8154C102.094 77.5693 101.708 77.2324 101.421 76.8047C101.139 76.3711 100.999 75.8789 100.999 75.3281C100.999 74.8301 101.092 74.3877 101.28 74.001C101.467 73.6143 101.743 73.2891 102.106 73.0254C102.475 72.7559 102.935 72.5537 103.486 72.4189C104.037 72.2783 104.675 72.208 105.402 72.208H106.87ZM115.738 68.4902V78H113.198V68.4902H115.738ZM118.797 68.4902V70.4502H110.183V68.4902H118.797ZM121.838 71.3115H124.597C125.464 71.3115 126.203 71.4551 126.812 71.7422C127.427 72.0234 127.896 72.416 128.218 72.9199C128.547 73.4238 128.711 74.0068 128.711 74.6689C128.711 75.1494 128.617 75.5947 128.429 76.0049C128.248 76.4092 127.981 76.7607 127.63 77.0596C127.278 77.3584 126.847 77.5898 126.338 77.7539C125.828 77.918 125.248 78 124.597 78H120.256V68.4902H122.796V76.0312H124.597C124.978 76.0312 125.283 75.9697 125.511 75.8467C125.746 75.7178 125.916 75.5508 126.021 75.3457C126.132 75.1406 126.188 74.918 126.188 74.6777C126.188 74.4258 126.132 74.1973 126.021 73.9922C125.916 73.7812 125.746 73.6113 125.511 73.4824C125.283 73.3535 124.978 73.2891 124.597 73.2891H121.838V71.3115ZM42.0856 89.4902V99H39.5543V89.4902H42.0856ZM48.2643 89.4902L44.1686 95.4404H41.6373L41.3297 93.1025H43.0084L45.0563 89.4902H48.2643ZM45.1705 99L42.8327 94.9834L45.0387 93.7617L48.5631 99H45.1705ZM54.6452 96.8555V92.6191C54.6452 92.3145 54.5954 92.0537 54.4957 91.8369C54.3961 91.6143 54.2409 91.4414 54.0299 91.3184C53.8248 91.1953 53.5582 91.1338 53.2301 91.1338C52.9489 91.1338 52.7057 91.1836 52.5006 91.2832C52.2955 91.377 52.1373 91.5146 52.026 91.6963C51.9147 91.8721 51.859 92.0801 51.859 92.3203H49.3278C49.3278 91.916 49.4215 91.5322 49.609 91.1689C49.7965 90.8057 50.069 90.4863 50.4264 90.2109C50.7838 89.9297 51.2086 89.71 51.7008 89.5518C52.1989 89.3936 52.7555 89.3145 53.3707 89.3145C54.109 89.3145 54.7653 89.4375 55.3395 89.6836C55.9137 89.9297 56.3649 90.2988 56.693 90.791C57.027 91.2832 57.194 91.8984 57.194 92.6367V96.7061C57.194 97.2275 57.2262 97.6553 57.2907 97.9893C57.3551 98.3174 57.4489 98.6045 57.5719 98.8506V99H55.0143C54.8913 98.7422 54.7975 98.4199 54.733 98.0332C54.6745 97.6406 54.6452 97.248 54.6452 96.8555ZM54.9791 93.208L54.9967 94.6406H53.5817C53.2477 94.6406 52.9577 94.6787 52.7116 94.7549C52.4655 94.8311 52.2633 94.9395 52.1051 95.0801C51.9469 95.2148 51.8297 95.373 51.7536 95.5547C51.6832 95.7363 51.6481 95.9355 51.6481 96.1523C51.6481 96.3691 51.6979 96.5654 51.7975 96.7412C51.8971 96.9111 52.0407 97.0459 52.2282 97.1455C52.4157 97.2393 52.6354 97.2861 52.8873 97.2861C53.2682 97.2861 53.5993 97.21 53.8805 97.0576C54.1618 96.9053 54.3786 96.7178 54.5309 96.4951C54.6891 96.2725 54.7711 96.0615 54.777 95.8623L55.445 96.9346C55.3512 97.1748 55.2223 97.4238 55.0582 97.6816C54.9 97.9395 54.6979 98.1826 54.4518 98.4111C54.2057 98.6338 53.9098 98.8184 53.5641 98.9648C53.2184 99.1055 52.8082 99.1758 52.3336 99.1758C51.7301 99.1758 51.1823 99.0557 50.6901 98.8154C50.2038 98.5693 49.817 98.2324 49.5299 97.8047C49.2487 97.3711 49.108 96.8789 49.108 96.3281C49.108 95.8301 49.2018 95.3877 49.3893 95.001C49.5768 94.6143 49.8522 94.2891 50.2155 94.0254C50.5846 93.7559 51.0446 93.5537 51.5954 93.4189C52.1461 93.2783 52.7848 93.208 53.5114 93.208H54.9791ZM61.8434 89.4902V99H59.3121V89.4902H61.8434ZM68.0221 89.4902L63.9264 95.4404H61.3952L61.0875 93.1025H62.7663L64.8141 89.4902H68.0221ZM64.9284 99L62.5905 94.9834L64.7965 93.7617L68.3209 99H64.9284ZM79.4918 93.1729V95.1592H74.359V93.1729H79.4918ZM76.4948 89.4902V99H73.9547V89.4902H76.4948ZM77.778 94.3418V94.1572C77.778 93.46 77.8776 92.8184 78.0768 92.2324C78.276 91.6406 78.5661 91.1279 78.9469 90.6943C79.3336 90.2607 79.8053 89.9238 80.362 89.6836C80.9186 89.4375 81.5543 89.3145 82.2692 89.3145C82.9957 89.3145 83.6373 89.4375 84.194 89.6836C84.7565 89.9238 85.2311 90.2607 85.6178 90.6943C86.0045 91.1279 86.2946 91.6406 86.4879 92.2324C86.6871 92.8184 86.7868 93.46 86.7868 94.1572V94.3418C86.7868 95.0332 86.6871 95.6748 86.4879 96.2666C86.2946 96.8525 86.0045 97.3652 85.6178 97.8047C85.237 98.2383 84.7653 98.5752 84.2028 98.8154C83.6461 99.0557 83.0075 99.1758 82.2868 99.1758C81.5661 99.1758 80.9274 99.0557 80.3707 98.8154C79.8141 98.5752 79.3424 98.2383 78.9557 97.8047C78.569 97.3652 78.276 96.8525 78.0768 96.2666C77.8776 95.6748 77.778 95.0332 77.778 94.3418ZM80.3092 94.1572V94.3418C80.3092 94.7402 80.3444 95.1123 80.4147 95.458C80.4909 95.8037 80.6051 96.1084 80.7575 96.3721C80.9157 96.6299 81.1207 96.832 81.3727 96.9785C81.6246 97.125 81.9293 97.1982 82.2868 97.1982C82.6442 97.1982 82.9459 97.125 83.192 96.9785C83.444 96.832 83.6461 96.6299 83.7985 96.3721C83.9567 96.1084 84.0709 95.8037 84.1413 95.458C84.2174 95.1123 84.2555 94.7402 84.2555 94.3418V94.1572C84.2555 93.7705 84.2174 93.4072 84.1413 93.0674C84.0709 92.7217 83.9567 92.417 83.7985 92.1533C83.6461 91.8838 83.444 91.6729 83.192 91.5205C82.9401 91.3682 82.6325 91.292 82.2692 91.292C81.9176 91.292 81.6159 91.3682 81.3639 91.5205C81.1178 91.6729 80.9157 91.8838 80.7575 92.1533C80.6051 92.417 80.4909 92.7217 80.4147 93.0674C80.3444 93.4072 80.3092 93.7705 80.3092 94.1572ZM90.8913 91.3184V102.656H88.36V89.4902H90.7067L90.8913 91.3184ZM96.9118 94.1396V94.3242C96.9118 95.0156 96.8297 95.6572 96.6657 96.249C96.5075 96.8408 96.2731 97.3564 95.9625 97.7959C95.652 98.2295 95.2653 98.5693 94.8024 98.8154C94.3454 99.0557 93.818 99.1758 93.2204 99.1758C92.6403 99.1758 92.1364 99.0586 91.7086 98.8242C91.2809 98.5898 90.9205 98.2617 90.6276 97.8398C90.3405 97.4121 90.109 96.917 89.9332 96.3545C89.7575 95.792 89.6227 95.1885 89.5289 94.5439V94.0605C89.6227 93.3691 89.7575 92.7363 89.9332 92.1621C90.109 91.582 90.3405 91.0811 90.6276 90.6592C90.9205 90.2314 91.278 89.9004 91.6998 89.666C92.1276 89.4316 92.6286 89.3145 93.2028 89.3145C93.8063 89.3145 94.3366 89.4287 94.7936 89.6572C95.2565 89.8857 95.6432 90.2139 95.9538 90.6416C96.2702 91.0693 96.5075 91.5791 96.6657 92.1709C96.8297 92.7627 96.9118 93.4189 96.9118 94.1396ZM94.3717 94.3242V94.1396C94.3717 93.7354 94.3366 93.3633 94.2663 93.0234C94.2018 92.6777 94.0963 92.376 93.9498 92.1182C93.8092 91.8604 93.6217 91.6611 93.3873 91.5205C93.1588 91.374 92.8805 91.3008 92.5524 91.3008C92.2067 91.3008 91.9108 91.3564 91.6647 91.4678C91.4245 91.5791 91.2282 91.7402 91.0758 91.9512C90.9235 92.1621 90.8092 92.4141 90.733 92.707C90.6569 93 90.61 93.3311 90.5924 93.7002V94.9219C90.6217 95.3555 90.7038 95.7451 90.8385 96.0908C90.9733 96.4307 91.1813 96.7002 91.4625 96.8994C91.7438 97.0986 92.1129 97.1982 92.57 97.1982C92.9039 97.1982 93.1852 97.125 93.4137 96.9785C93.6422 96.8262 93.8268 96.6182 93.9674 96.3545C94.1139 96.0908 94.2164 95.7861 94.275 95.4404C94.3395 95.0947 94.3717 94.7227 94.3717 94.3242ZM104.76 89.4902V91.4766H100.085V89.4902H104.76ZM106.615 89.4902V99H104.084V89.4902H106.615ZM99.4518 89.4902H101.939L101.684 94.2891C101.649 94.9746 101.576 95.5781 101.464 96.0996C101.353 96.6211 101.204 97.0664 101.016 97.4355C100.835 97.8047 100.615 98.1064 100.357 98.3408C100.105 98.5693 99.8092 98.7363 99.4694 98.8418C99.1354 98.9473 98.7663 99 98.362 99H97.5885L97.5621 97.0049L97.8873 96.9697C98.0748 96.9521 98.2389 96.8994 98.3795 96.8115C98.526 96.7178 98.6491 96.5859 98.7487 96.416C98.8541 96.2402 98.942 96.0205 99.0123 95.7568C99.0827 95.4873 99.1383 95.1709 99.1793 94.8076C99.2262 94.4443 99.2584 94.0254 99.276 93.5508L99.4518 89.4902ZM111.097 95.4668L114.288 89.4902H116.819V99H114.288V93.0146L111.097 99H108.566V89.4902H111.097V95.4668ZM118.761 99V89.4902H121.293V97.0225H124.474V89.4902H127.014V99H118.761ZM128.438 97.0312L128.271 101.821H125.916V99H124.852V97.0312H128.438ZM129.317 94.3418V94.1572C129.317 93.46 129.417 92.8184 129.616 92.2324C129.815 91.6406 130.105 91.1279 130.486 90.6943C130.867 90.2607 131.336 89.9238 131.892 89.6836C132.449 89.4375 133.088 89.3145 133.808 89.3145C134.529 89.3145 135.171 89.4375 135.733 89.6836C136.296 89.9238 136.767 90.2607 137.148 90.6943C137.535 91.1279 137.828 91.6406 138.027 92.2324C138.226 92.8184 138.326 93.46 138.326 94.1572V94.3418C138.326 95.0332 138.226 95.6748 138.027 96.2666C137.828 96.8525 137.535 97.3652 137.148 97.8047C136.767 98.2383 136.298 98.5752 135.742 98.8154C135.185 99.0557 134.547 99.1758 133.826 99.1758C133.105 99.1758 132.464 99.0557 131.901 98.8154C131.344 98.5752 130.873 98.2383 130.486 97.8047C130.105 97.3652 129.815 96.8525 129.616 96.2666C129.417 95.6748 129.317 95.0332 129.317 94.3418ZM131.848 94.1572V94.3418C131.848 94.7402 131.883 95.1123 131.954 95.458C132.024 95.8037 132.135 96.1084 132.288 96.3721C132.446 96.6299 132.651 96.832 132.903 96.9785C133.155 97.125 133.463 97.1982 133.826 97.1982C134.177 97.1982 134.479 97.125 134.731 96.9785C134.983 96.832 135.185 96.6299 135.338 96.3721C135.49 96.1084 135.601 95.8037 135.672 95.458C135.748 95.1123 135.786 94.7402 135.786 94.3418V94.1572C135.786 93.7705 135.748 93.4072 135.672 93.0674C135.601 92.7217 135.487 92.417 135.329 92.1533C135.176 91.8838 134.974 91.6729 134.722 91.5205C134.47 91.3682 134.166 91.292 133.808 91.292C133.451 91.292 133.146 91.3682 132.894 91.5205C132.648 91.6729 132.446 91.8838 132.288 92.1533C132.135 92.417 132.024 92.7217 131.954 93.0674C131.883 93.4072 131.848 93.7705 131.848 94.1572Z" fill="#6682A9"/>
<path d="M197.56 62.5H211.06C211.473 62.5 211.81 62.8375 211.81 63.25V67H196.81V63.25C196.81 62.8375 197.148 62.5 197.56 62.5ZM192.31 63.25V67H186.31C183.001 67 180.31 69.6906 180.31 73V82H198.31H210.31H228.31V73C228.31 69.6906 225.619 67 222.31 67H216.31V63.25C216.31 60.3531 213.957 58 211.06 58H197.56C194.663 58 192.31 60.3531 192.31 63.25ZM228.31 85H210.31V88C210.31 89.6594 208.969 91 207.31 91H201.31C199.651 91 198.31 89.6594 198.31 88V85H180.31V97C180.31 100.309 183.001 103 186.31 103H222.31C225.619 103 228.31 100.309 228.31 97V85Z" fill="#6682A9"/>
</svg>
