<svg width="266" height="180" viewBox="0 0 266 180" fill="none" xmlns="http://www.w3.org/2000/svg">
<rect width="265.13" height="180" rx="5" fill="#DBE1FF"/>
<g clip-path="url(#clip0_1_333)">
<g clip-path="url(#clip1_1_333)">
<g clip-path="url(#clip2_1_333)">
<path d="M207.435 74.516C207.435 74.9047 207.359 75.2602 207.215 75.5888C207.071 75.919 206.886 76.2065 206.649 76.4514C206.405 76.6963 206.126 76.8907 205.798 77.0249C205.46 77.1608 205.114 77.2288 204.742 77.2288C204.363 77.2288 204.009 77.1608 203.654 77.0249C203.308 76.8907 203.012 76.7042 202.752 76.4593C202.499 76.2144 202.295 75.9269 202.143 75.5983C201.992 75.2681 201.916 74.9047 201.916 74.516V65.106C201.916 64.9717 201.933 64.869 201.967 64.8026C201.933 63.9747 201.764 63.1974 201.461 62.4706C201.156 61.7518 200.744 61.1182 200.221 60.5779C199.696 60.0376 199.089 59.6062 198.39 59.295C197.688 58.9822 196.912 58.8305 196.069 58.8305C195.208 58.8305 194.414 58.9822 193.689 59.295C192.963 59.6062 192.346 60.0455 191.833 60.6032C191.318 61.1609 190.912 61.8118 190.618 62.5639C190.322 63.3159 190.169 64.1185 190.169 64.9796V74.516C190.169 74.9047 190.103 75.2681 189.967 75.5983C189.833 75.9269 189.638 76.2144 189.393 76.4593C189.149 76.7042 188.863 76.8907 188.542 77.0249C188.221 77.1608 187.866 77.2288 187.479 77.2288C187.098 77.2288 186.744 77.1608 186.406 77.0249C186.069 76.8907 185.766 76.6963 185.504 76.4514C185.241 76.2065 185.031 75.919 184.88 75.5888C184.728 75.2602 184.652 74.9047 184.652 74.516V64.9622C184.652 63.3412 184.946 61.8197 185.529 60.4088C186.11 58.998 186.913 57.7656 187.934 56.7102C188.954 55.6533 190.161 54.8254 191.553 54.2171C192.955 53.6088 194.448 53.3055 196.059 53.3055C197.68 53.3055 199.183 53.6088 200.567 54.2171C201.949 54.8254 203.148 55.6533 204.169 56.7102C205.182 57.7656 205.975 58.998 206.558 60.4088C207.139 61.8197 207.435 63.3412 207.435 64.9622V74.516Z" fill="#011C47"/>
<path d="M139.019 53.296H151.579C152.039 53.3023 152.399 53.3734 152.82 53.5488C153.84 53.9975 154.46 54.9123 154.46 55.9313C154.458 56.4527 154.287 56.963 153.965 57.3944L140.068 76.0549C139.178 77.2493 137.377 77.5637 136.068 76.7516C134.756 75.9411 134.412 74.2996 135.301 73.1052L145.847 58.9443H139.112C137.373 58.9443 135.951 57.6772 135.951 56.1273C135.951 55.1983 136.463 54.3704 137.246 53.8569C137.736 53.5062 138.352 53.296 139.019 53.296ZM146.644 71.5395H152.87C154.46 71.5395 155.761 72.8176 155.761 74.3786C155.761 75.9411 154.46 77.2193 152.87 77.2193H146.644C145.053 77.2193 143.752 75.9411 143.752 74.3786C143.752 72.8176 145.053 71.5395 146.644 71.5395Z" fill="#011C47"/>
<path fill-rule="evenodd" clip-rule="evenodd" d="M169.033 53.3087C169.312 53.296 171.077 53.3008 171.915 53.533C173.137 53.7747 174.084 54.8349 174.141 56.1478C174.209 57.6851 173.028 58.9838 171.505 59.0501C171.392 59.0549 171.279 59.0533 171.169 59.0454C171.169 59.0628 169.507 58.8874 169.276 58.8969C165.764 59.0501 163.04 62.0251 163.192 65.5405C163.345 69.0542 166.317 71.7812 169.831 71.6279C173.344 71.4747 176.068 68.4997 175.915 64.9843C175.904 64.741 175.664 63.2859 175.163 62.2305C175 61.8419 174.836 61.4248 174.807 60.9871C174.668 58.8432 176.354 57.9505 177.454 57.9363C178.553 57.9236 179.34 58.4813 179.871 59.2097C181.361 61.5638 181.486 64.474 181.5 64.741C181.86 71.4131 176.672 76.9286 170.074 77.2161C163.476 77.5037 157.894 72.3847 157.607 65.7838C157.319 59.1813 162.435 53.5962 169.033 53.3087Z" fill="#011C47"/>
<path d="M116.271 65.2403C116.271 66.8597 117.009 68.457 118.093 69.6372C118.652 70.2471 119.305 70.7416 120.055 71.1255C120.807 71.5094 121.618 71.7101 122.487 71.7275C123.389 71.7275 124.191 71.6106 124.883 71.3846C125.577 71.1587 126.27 70.7574 126.972 70.1728C127.307 69.8884 127.683 69.6214 128.092 69.3781C128.501 69.1364 128.944 69.0195 129.429 69.0195C129.713 69.0195 130.013 69.0779 130.331 69.2028C130.648 69.3276 130.974 69.5377 131.307 69.8221C131.882 70.3277 132.168 71.0228 132.151 71.7859C132.134 72.6312 131.756 73.3548 131.182 73.9583C130.148 75.0121 128.918 75.8148 127.49 76.3661C126.062 76.9175 124.558 77.194 122.987 77.194C121.317 77.194 119.747 76.8844 118.276 76.2745C116.807 75.6647 115.519 74.8289 114.408 73.7577C113.298 72.6881 112.429 71.4257 111.794 69.9801C111.133 68.4934 110.833 66.8882 110.833 65.3082V65.2577C110.833 63.5861 111.151 62.0141 111.794 60.5511C112.429 59.088 113.298 57.8178 114.408 56.7403C115.519 55.6612 116.807 54.8175 118.276 54.1982C119.747 53.5804 121.317 53.2708 122.987 53.2708C124.558 53.2708 126.062 53.5378 127.49 54.0655C128.918 54.5916 130.148 55.3863 131.182 56.448C131.753 57.0183 132.159 57.8036 132.176 58.6204C132.194 59.393 131.857 60.1071 131.284 60.619C130.949 60.9018 130.631 61.1025 130.331 61.2194C130.029 61.3379 129.737 61.3963 129.454 61.3963C128.969 61.3963 128.527 61.2699 128.117 61.0282C127.708 60.7849 127.323 60.5258 126.972 60.2414C126.27 59.7074 125.577 59.3235 124.893 59.088C124.207 58.8542 123.488 58.7373 122.738 58.7373C121.885 58.7373 121.066 58.9127 120.281 59.265C118.712 59.9649 117.522 61.202 116.823 62.7661C116.472 63.5529 116.271 64.3966 116.271 65.2403Z" fill="#1BA3A3"/>
<path fill-rule="evenodd" clip-rule="evenodd" d="M95.7194 53.2754C95.9991 53.2644 97.7623 53.2691 98.5997 53.5014C99.8225 53.7415 100.769 54.8032 100.827 56.1146C100.894 57.6519 99.7135 58.9521 98.1905 59.0185C98.0767 59.0232 97.9645 59.0217 97.8539 59.0122C97.8555 59.0311 96.1934 58.8542 95.9628 58.8652C92.449 59.0185 89.7252 61.9919 89.8785 65.5073C90.0317 69.0226 93.0035 71.748 96.5157 71.5947C100.029 71.4415 102.753 68.468 102.6 64.9527C102.589 64.7078 102.349 63.2543 101.85 62.1973C101.685 61.8102 101.521 61.3915 101.493 60.9539C101.353 58.8099 103.041 57.9173 104.14 57.9046C105.24 57.8904 106.027 58.4497 106.556 59.1765C108.046 61.5322 108.171 64.4408 108.187 64.7094C108.545 71.3799 103.358 76.8954 96.759 77.1829C90.1613 77.4705 84.5794 72.3531 84.2918 65.7506C84.0043 59.148 89.1201 53.563 95.7194 53.2754Z" fill="#1BA3A3"/>
<path d="M81.6518 65.1297C81.6518 66.8028 81.3326 68.3764 80.6959 69.8379C79.4272 72.7528 77.19 75.0137 74.2925 76.2808C72.8342 76.9159 71.2922 77.2288 69.6411 77.2288C67.9822 77.2288 66.4228 76.9159 64.9646 76.2808C62.0654 75.02 59.8377 72.767 58.5959 69.8379C57.9749 68.3764 57.6653 66.8028 57.6653 65.1297C57.6653 63.4723 57.9749 61.9082 58.5959 60.4373C59.0888 59.265 59.7302 58.2096 60.5044 57.2837C62.2803 55.1366 64.9093 53.5836 67.3629 53.3071C68.9318 53.1301 70.4896 53.1048 72.0016 53.6262C72.7899 53.8995 73.2876 54.2708 73.6984 54.9486C74.0681 55.5569 74.0728 56.2994 73.8801 57.0799C73.7821 57.4702 73.6273 57.8067 73.4093 58.099C72.9653 58.693 72.3855 59.0327 71.6919 59.1338C71.3143 59.1891 70.9762 59.1544 70.6081 59.0454C69.7517 58.7926 68.4546 58.8068 67.5983 58.9837C66.6235 59.1844 66.0831 59.6173 65.3501 60.1892C64.6185 60.8386 64.0435 61.6491 63.6501 62.5923C63.3135 63.387 63.1461 64.2323 63.1461 65.1297C63.1461 66.0429 63.3135 66.896 63.6501 67.6907C64.3215 69.3023 65.5144 70.4919 67.1022 71.1824C67.8906 71.53 68.7453 71.699 69.6411 71.699C70.5291 71.699 71.3759 71.53 72.1643 71.1824C73.7553 70.4904 74.9702 69.3007 75.6591 67.6907C75.9719 66.9671 76.1394 66.193 76.1662 65.3698H76.1773V59.6252V54.3293H76.1694V47.6272C76.1694 47.2212 76.2373 46.8499 76.3622 46.5023C76.6181 45.8008 77.0731 45.3031 77.7462 44.9887C78.0811 44.8371 78.4413 44.7612 78.8442 44.7612C79.2376 44.7612 79.5979 44.8371 79.9328 44.9887C80.6201 45.3016 81.1225 45.8071 81.4242 46.5023C81.5759 46.8499 81.6518 47.2212 81.6518 47.6272V65.1297Z" fill="#1BA3A3"/>
</g>
</g>
</g>
<path d="M84.1307 102.793V104.859H78.6902V102.793H84.1307ZM74.9197 105.975H77.5477C77.5887 106.496 77.7029 106.933 77.8904 107.284C78.0838 107.636 78.3592 107.903 78.7166 108.084C79.074 108.266 79.5281 108.357 80.0789 108.357C80.5477 108.357 80.949 108.269 81.283 108.093C81.617 107.911 81.8895 107.651 82.1004 107.311C82.3172 106.965 82.4754 106.537 82.575 106.028C82.6805 105.518 82.7332 104.932 82.7332 104.27V103.382C82.7332 102.837 82.6951 102.348 82.6189 101.914C82.5486 101.475 82.4402 101.094 82.2937 100.772C82.1531 100.444 81.9744 100.174 81.7576 99.9632C81.5408 99.7464 81.2889 99.5853 81.0018 99.4798C80.7205 99.3685 80.4041 99.3128 80.0525 99.3128C79.4725 99.3128 79.0037 99.4095 78.6463 99.6028C78.2947 99.7903 78.0311 100.066 77.8553 100.429C77.6853 100.792 77.5799 101.232 77.5389 101.747H74.9109C74.993 100.874 75.2361 100.101 75.6404 99.4271C76.0506 98.7474 76.6219 98.2142 77.3543 97.8275C78.0867 97.4407 78.9861 97.2474 80.0525 97.2474C80.8611 97.2474 81.5906 97.3909 82.241 97.678C82.8973 97.9593 83.4568 98.3694 83.9197 98.9085C84.3826 99.4476 84.7371 100.095 84.9832 100.851C85.2293 101.607 85.3523 102.456 85.3523 103.4V104.27C85.3523 105.213 85.2322 106.063 84.992 106.819C84.7518 107.575 84.4031 108.219 83.9461 108.752C83.4891 109.28 82.9353 109.687 82.285 109.974C81.6346 110.261 80.8992 110.405 80.0789 110.405C79.0359 110.405 78.1395 110.217 77.3895 109.842C76.6453 109.461 76.0623 108.94 75.6404 108.278C75.2244 107.61 74.9842 106.842 74.9197 105.975ZM93.2625 100.71V102.697H88.5867V100.71H93.2625ZM95.117 100.71V110.22H92.5857V100.71H95.117ZM87.9539 100.71H90.4412L90.1863 105.509C90.1512 106.195 90.0779 106.798 89.9666 107.32C89.8553 107.841 89.7059 108.286 89.5184 108.656C89.3367 109.025 89.117 109.326 88.8592 109.561C88.6072 109.789 88.3113 109.956 87.9715 110.062C87.6375 110.167 87.2684 110.22 86.8641 110.22H86.0906L86.0643 108.225L86.3895 108.19C86.577 108.172 86.741 108.119 86.8816 108.032C87.0281 107.938 87.1512 107.806 87.2508 107.636C87.3562 107.46 87.4441 107.241 87.5145 106.977C87.5848 106.707 87.6404 106.391 87.6814 106.028C87.7283 105.664 87.7605 105.245 87.7781 104.771L87.9539 100.71ZM101.454 110.396C100.716 110.396 100.054 110.279 99.4676 110.044C98.8816 109.804 98.3836 109.473 97.9734 109.051C97.5691 108.629 97.2586 108.14 97.0418 107.583C96.825 107.021 96.7166 106.423 96.7166 105.79V105.439C96.7166 104.718 96.8191 104.059 97.0242 103.461C97.2293 102.864 97.5223 102.345 97.9031 101.906C98.2898 101.466 98.7586 101.129 99.3094 100.895C99.8602 100.655 100.481 100.534 101.173 100.534C101.846 100.534 102.444 100.646 102.966 100.868C103.487 101.091 103.924 101.408 104.275 101.818C104.633 102.228 104.902 102.72 105.084 103.294C105.265 103.863 105.356 104.495 105.356 105.193V106.247H97.7977V104.56H102.869V104.367C102.869 104.015 102.804 103.701 102.676 103.426C102.553 103.145 102.365 102.922 102.113 102.758C101.861 102.594 101.539 102.512 101.146 102.512C100.812 102.512 100.525 102.585 100.285 102.732C100.045 102.878 99.8484 103.083 99.6961 103.347C99.5496 103.611 99.4383 103.921 99.3621 104.279C99.2918 104.63 99.2566 105.017 99.2566 105.439V105.79C99.2566 106.171 99.3094 106.523 99.4148 106.845C99.5262 107.167 99.6814 107.446 99.8807 107.68C100.086 107.914 100.332 108.096 100.619 108.225C100.912 108.354 101.243 108.418 101.612 108.418C102.069 108.418 102.494 108.33 102.887 108.155C103.285 107.973 103.628 107.701 103.915 107.337L105.145 108.673C104.946 108.96 104.674 109.236 104.328 109.499C103.988 109.763 103.578 109.98 103.097 110.15C102.617 110.314 102.069 110.396 101.454 110.396ZM109.496 100.71V110.22H106.965V100.71H109.496ZM115.675 100.71L111.579 106.66H109.048L108.74 104.323H110.419L112.467 100.71H115.675ZM112.581 110.22L110.243 106.203L112.449 104.982L115.973 110.22H112.581ZM121.765 100.71V110.22H119.225V100.71H121.765ZM124.824 100.71V102.67H116.211V100.71H124.824ZM128.647 102.538V113.876H126.116V100.71H128.463L128.647 102.538ZM134.668 105.36V105.544C134.668 106.236 134.586 106.877 134.422 107.469C134.263 108.061 134.029 108.576 133.719 109.016C133.408 109.45 133.021 109.789 132.558 110.035C132.101 110.276 131.574 110.396 130.976 110.396C130.396 110.396 129.892 110.279 129.465 110.044C129.037 109.81 128.677 109.482 128.384 109.06C128.096 108.632 127.865 108.137 127.689 107.575C127.513 107.012 127.379 106.409 127.285 105.764V105.281C127.379 104.589 127.513 103.956 127.689 103.382C127.865 102.802 128.096 102.301 128.384 101.879C128.677 101.451 129.034 101.12 129.456 100.886C129.884 100.652 130.385 100.534 130.959 100.534C131.562 100.534 132.093 100.649 132.55 100.877C133.012 101.106 133.399 101.434 133.71 101.862C134.026 102.289 134.263 102.799 134.422 103.391C134.586 103.983 134.668 104.639 134.668 105.36ZM132.128 105.544V105.36C132.128 104.955 132.093 104.583 132.022 104.243C131.958 103.898 131.852 103.596 131.706 103.338C131.565 103.08 131.378 102.881 131.143 102.741C130.915 102.594 130.637 102.521 130.308 102.521C129.963 102.521 129.667 102.576 129.421 102.688C129.18 102.799 128.984 102.96 128.832 103.171C128.679 103.382 128.565 103.634 128.489 103.927C128.413 104.22 128.366 104.551 128.348 104.92V106.142C128.378 106.576 128.46 106.965 128.595 107.311C128.729 107.651 128.937 107.92 129.219 108.119C129.5 108.319 129.869 108.418 130.326 108.418C130.66 108.418 130.941 108.345 131.17 108.199C131.398 108.046 131.583 107.838 131.723 107.575C131.87 107.311 131.972 107.006 132.031 106.66C132.096 106.315 132.128 105.943 132.128 105.544ZM135.837 105.562V105.377C135.837 104.68 135.936 104.038 136.136 103.452C136.335 102.861 136.625 102.348 137.006 101.914C137.387 101.481 137.855 101.144 138.412 100.904C138.969 100.658 139.607 100.534 140.328 100.534C141.049 100.534 141.69 100.658 142.253 100.904C142.815 101.144 143.287 101.481 143.668 101.914C144.054 102.348 144.347 102.861 144.547 103.452C144.746 104.038 144.846 104.68 144.846 105.377V105.562C144.846 106.253 144.746 106.895 144.547 107.487C144.347 108.073 144.054 108.585 143.668 109.025C143.287 109.458 142.818 109.795 142.262 110.035C141.705 110.276 141.066 110.396 140.346 110.396C139.625 110.396 138.983 110.276 138.421 110.035C137.864 109.795 137.392 109.458 137.006 109.025C136.625 108.585 136.335 108.073 136.136 107.487C135.936 106.895 135.837 106.253 135.837 105.562ZM138.368 105.377V105.562C138.368 105.96 138.403 106.332 138.473 106.678C138.544 107.024 138.655 107.328 138.807 107.592C138.966 107.85 139.171 108.052 139.423 108.199C139.675 108.345 139.982 108.418 140.346 108.418C140.697 108.418 140.999 108.345 141.251 108.199C141.503 108.052 141.705 107.85 141.857 107.592C142.01 107.328 142.121 107.024 142.191 106.678C142.267 106.332 142.305 105.96 142.305 105.562V105.377C142.305 104.991 142.267 104.627 142.191 104.287C142.121 103.942 142.007 103.637 141.848 103.373C141.696 103.104 141.494 102.893 141.242 102.741C140.99 102.588 140.685 102.512 140.328 102.512C139.971 102.512 139.666 102.588 139.414 102.741C139.168 102.893 138.966 103.104 138.807 103.373C138.655 103.637 138.544 103.942 138.473 104.287C138.403 104.627 138.368 104.991 138.368 105.377ZM152.914 104.551V106.52H148.08V104.551H152.914ZM148.924 100.71V110.22H146.392V100.71H148.924ZM154.628 100.71V110.22H152.088V100.71H154.628ZM163.109 104.551V106.52H158.275V104.551H163.109ZM159.119 100.71V110.22H156.588V100.71H159.119ZM164.823 100.71V110.22H162.283V100.71H164.823ZM168.541 103.532H171.301C172.168 103.532 172.906 103.675 173.515 103.962C174.131 104.243 174.599 104.636 174.922 105.14C175.25 105.644 175.414 106.227 175.414 106.889C175.414 107.369 175.32 107.815 175.133 108.225C174.951 108.629 174.684 108.981 174.333 109.28C173.981 109.578 173.551 109.81 173.041 109.974C172.531 110.138 171.951 110.22 171.301 110.22H166.959V100.71H169.499V108.251H171.301C171.681 108.251 171.986 108.19 172.215 108.067C172.449 107.938 172.619 107.771 172.724 107.566C172.836 107.361 172.891 107.138 172.891 106.898C172.891 106.646 172.836 106.417 172.724 106.212C172.619 106.001 172.449 105.831 172.215 105.702C171.986 105.574 171.681 105.509 171.301 105.509H168.541V103.532ZM179.474 100.71V110.22H176.943V100.71H179.474ZM184.221 106.687L187.411 100.71H189.942V110.22H187.411V104.235L184.221 110.22H181.689V100.71H184.221V106.687ZM187.121 96.887H188.923C188.923 97.3909 188.797 97.8392 188.545 98.2318C188.299 98.6185 187.947 98.9232 187.49 99.1458C187.033 99.3626 186.494 99.471 185.873 99.471C184.929 99.471 184.182 99.2308 183.632 98.7503C183.087 98.2698 182.814 97.6487 182.814 96.887H184.607C184.607 97.1917 184.701 97.4642 184.888 97.7044C185.082 97.9446 185.41 98.0648 185.873 98.0648C186.33 98.0648 186.652 97.9446 186.84 97.7044C187.027 97.4642 187.121 97.1917 187.121 96.887ZM58.7654 121.71H61.2967L61.2176 124.892C61.1941 125.911 61.077 126.787 60.866 127.52C60.6551 128.252 60.3738 128.867 60.0223 129.366C59.6707 129.864 59.2693 130.262 58.8182 130.561C58.3728 130.854 57.9041 131.074 57.4119 131.22H56.9373L56.9109 129.269L57.1746 129.242C57.4734 128.932 57.7195 128.63 57.9129 128.337C58.1062 128.038 58.2557 127.725 58.3611 127.397C58.4666 127.069 58.5428 126.702 58.5896 126.298C58.6424 125.894 58.6746 125.425 58.6863 124.892L58.7654 121.71ZM59.451 121.71H65.7527V131.22H63.2303V123.741H59.451V121.71ZM56.3572 129.242H67.115V134.076H64.5838V131.22H58.95V134.076H56.3572V129.242ZM68.0027 126.562V126.377C68.0027 125.68 68.1023 125.038 68.3016 124.452C68.5008 123.861 68.7908 123.348 69.1717 122.914C69.5525 122.481 70.0213 122.144 70.5779 121.904C71.1346 121.658 71.7732 121.534 72.4939 121.534C73.2146 121.534 73.8562 121.658 74.4187 121.904C74.9812 122.144 75.4529 122.481 75.8338 122.914C76.2205 123.348 76.5135 123.861 76.7127 124.452C76.9119 125.038 77.0115 125.68 77.0115 126.377V126.562C77.0115 127.253 76.9119 127.895 76.7127 128.487C76.5135 129.073 76.2205 129.585 75.8338 130.025C75.4529 130.458 74.9842 130.795 74.4275 131.035C73.8709 131.276 73.2322 131.396 72.5115 131.396C71.7908 131.396 71.1492 131.276 70.5867 131.035C70.0301 130.795 69.5584 130.458 69.1717 130.025C68.7908 129.585 68.5008 129.073 68.3016 128.487C68.1023 127.895 68.0027 127.253 68.0027 126.562ZM70.534 126.377V126.562C70.534 126.96 70.5691 127.332 70.6395 127.678C70.7098 128.024 70.8211 128.328 70.9734 128.592C71.1316 128.85 71.3367 129.052 71.5887 129.199C71.8406 129.345 72.1482 129.418 72.5115 129.418C72.8631 129.418 73.1648 129.345 73.4168 129.199C73.6687 129.052 73.8709 128.85 74.0232 128.592C74.1756 128.328 74.2869 128.024 74.3572 127.678C74.4334 127.332 74.4715 126.96 74.4715 126.562V126.377C74.4715 125.991 74.4334 125.627 74.3572 125.287C74.2869 124.942 74.1727 124.637 74.0145 124.373C73.8621 124.104 73.66 123.893 73.408 123.741C73.1561 123.588 72.8514 123.512 72.4939 123.512C72.1365 123.512 71.8318 123.588 71.5799 123.741C71.3338 123.893 71.1316 124.104 70.9734 124.373C70.8211 124.637 70.7098 124.942 70.6395 125.287C70.5691 125.627 70.534 125.991 70.534 126.377ZM81.2654 121.71V131.22H78.7342V121.71H81.2654ZM87.4441 121.71L83.3484 127.66H80.8172L80.5096 125.323H82.1883L84.2361 121.71H87.4441ZM84.3504 131.22L82.0125 127.203L84.2186 125.982L87.743 131.22H84.3504ZM91.5135 130.148L94.0359 121.71H96.7518L92.9285 132.653C92.8465 132.893 92.7352 133.151 92.5945 133.426C92.4598 133.701 92.2752 133.962 92.0408 134.208C91.8123 134.46 91.5223 134.665 91.1707 134.824C90.825 134.982 90.4002 135.061 89.8963 135.061C89.6561 135.061 89.4598 135.046 89.3074 135.017C89.1551 134.988 88.9734 134.947 88.7625 134.894V133.039C88.827 133.039 88.8943 133.039 88.9646 133.039C89.035 133.045 89.1023 133.048 89.1668 133.048C89.5008 133.048 89.7732 133.01 89.9842 132.934C90.1951 132.858 90.365 132.741 90.4939 132.582C90.6228 132.43 90.7254 132.231 90.8016 131.985L91.5135 130.148ZM90.4588 121.71L92.5242 128.601L92.8846 131.282L91.1619 131.466L87.743 121.71H90.4588ZM103.546 128.311L106.042 121.71H108.107L104.398 131.22H102.693L99.0018 121.71H101.067L103.546 128.311ZM100.461 121.71V131.22H97.9295V121.71H100.461ZM106.692 131.22V121.71H109.223V131.22H106.692ZM115.815 131.396C115.077 131.396 114.415 131.279 113.829 131.044C113.243 130.804 112.745 130.473 112.335 130.051C111.93 129.629 111.62 129.14 111.403 128.583C111.186 128.021 111.078 127.423 111.078 126.79V126.439C111.078 125.718 111.18 125.059 111.386 124.461C111.591 123.864 111.884 123.345 112.264 122.906C112.651 122.466 113.12 122.129 113.671 121.895C114.221 121.655 114.843 121.534 115.534 121.534C116.208 121.534 116.805 121.646 117.327 121.868C117.848 122.091 118.285 122.408 118.637 122.818C118.994 123.228 119.263 123.72 119.445 124.294C119.627 124.863 119.718 125.495 119.718 126.193V127.247H112.159V125.56H117.23V125.367C117.23 125.015 117.166 124.701 117.037 124.426C116.914 124.145 116.726 123.922 116.474 123.758C116.222 123.594 115.9 123.512 115.508 123.512C115.174 123.512 114.887 123.585 114.646 123.732C114.406 123.878 114.21 124.083 114.057 124.347C113.911 124.611 113.8 124.921 113.723 125.279C113.653 125.63 113.618 126.017 113.618 126.439V126.79C113.618 127.171 113.671 127.523 113.776 127.845C113.887 128.167 114.043 128.446 114.242 128.68C114.447 128.914 114.693 129.096 114.98 129.225C115.273 129.354 115.604 129.418 115.973 129.418C116.43 129.418 116.855 129.33 117.248 129.155C117.646 128.973 117.989 128.701 118.276 128.337L119.507 129.673C119.307 129.96 119.035 130.236 118.689 130.499C118.349 130.763 117.939 130.98 117.459 131.15C116.978 131.314 116.43 131.396 115.815 131.396ZM127.672 125.551V127.52H122.838V125.551H127.672ZM123.681 121.71V131.22H121.15V121.71H123.681ZM129.386 121.71V131.22H126.846V121.71H129.386ZM136.197 121.71V131.22H133.657V121.71H136.197ZM139.256 121.71V123.67H130.642V121.71H139.256ZM139.845 126.562V126.377C139.845 125.68 139.944 125.038 140.143 124.452C140.343 123.861 140.633 123.348 141.013 122.914C141.394 122.481 141.863 122.144 142.42 121.904C142.976 121.658 143.615 121.534 144.336 121.534C145.056 121.534 145.698 121.658 146.261 121.904C146.823 122.144 147.295 122.481 147.676 122.914C148.062 123.348 148.355 123.861 148.554 124.452C148.754 125.038 148.853 125.68 148.853 126.377V126.562C148.853 127.253 148.754 127.895 148.554 128.487C148.355 129.073 148.062 129.585 147.676 130.025C147.295 130.458 146.826 130.795 146.269 131.035C145.713 131.276 145.074 131.396 144.353 131.396C143.633 131.396 142.991 131.276 142.429 131.035C141.872 130.795 141.4 130.458 141.013 130.025C140.633 129.585 140.343 129.073 140.143 128.487C139.944 127.895 139.845 127.253 139.845 126.562ZM142.376 126.377V126.562C142.376 126.96 142.411 127.332 142.481 127.678C142.552 128.024 142.663 128.328 142.815 128.592C142.973 128.85 143.179 129.052 143.43 129.199C143.682 129.345 143.99 129.418 144.353 129.418C144.705 129.418 145.007 129.345 145.259 129.199C145.511 129.052 145.713 128.85 145.865 128.592C146.017 128.328 146.129 128.024 146.199 127.678C146.275 127.332 146.313 126.96 146.313 126.562V126.377C146.313 125.991 146.275 125.627 146.199 125.287C146.129 124.942 146.014 124.637 145.856 124.373C145.704 124.104 145.502 123.893 145.25 123.741C144.998 123.588 144.693 123.512 144.336 123.512C143.978 123.512 143.674 123.588 143.422 123.741C143.176 123.893 142.973 124.104 142.815 124.373C142.663 124.637 142.552 124.942 142.481 125.287C142.411 125.627 142.376 125.991 142.376 126.377ZM150.005 126.562V126.377C150.005 125.68 150.104 125.038 150.304 124.452C150.503 123.861 150.793 123.348 151.174 122.914C151.554 122.481 152.023 122.144 152.58 121.904C153.137 121.658 153.775 121.534 154.496 121.534C155.217 121.534 155.858 121.658 156.421 121.904C156.983 122.144 157.455 122.481 157.836 122.914C158.222 123.348 158.515 123.861 158.715 124.452C158.914 125.038 159.013 125.68 159.013 126.377V126.562C159.013 127.253 158.914 127.895 158.715 128.487C158.515 129.073 158.222 129.585 157.836 130.025C157.455 130.458 156.986 130.795 156.429 131.035C155.873 131.276 155.234 131.396 154.513 131.396C153.793 131.396 153.151 131.276 152.589 131.035C152.032 130.795 151.56 130.458 151.174 130.025C150.793 129.585 150.503 129.073 150.304 128.487C150.104 127.895 150.005 127.253 150.005 126.562ZM152.536 126.377V126.562C152.536 126.96 152.571 127.332 152.641 127.678C152.712 128.024 152.823 128.328 152.975 128.592C153.134 128.85 153.339 129.052 153.591 129.199C153.843 129.345 154.15 129.418 154.513 129.418C154.865 129.418 155.167 129.345 155.419 129.199C155.671 129.052 155.873 128.85 156.025 128.592C156.178 128.328 156.289 128.024 156.359 127.678C156.435 127.332 156.473 126.96 156.473 126.562V126.377C156.473 125.991 156.435 125.627 156.359 125.287C156.289 124.942 156.175 124.637 156.016 124.373C155.864 124.104 155.662 123.893 155.41 123.741C155.158 123.588 154.853 123.512 154.496 123.512C154.138 123.512 153.834 123.588 153.582 123.741C153.336 123.893 153.134 124.104 152.975 124.373C152.823 124.637 152.712 124.942 152.641 125.287C152.571 125.627 152.536 125.991 152.536 126.377ZM166.396 117.527H168.444C168.444 118.001 168.386 118.409 168.268 118.748C168.151 119.082 167.964 119.369 167.706 119.61C167.448 119.844 167.102 120.043 166.669 120.207C166.235 120.371 165.699 120.512 165.06 120.629C164.568 120.729 164.14 120.893 163.777 121.121C163.42 121.35 163.124 121.663 162.889 122.062C162.661 122.454 162.497 122.952 162.397 123.556C162.298 124.154 162.262 124.874 162.292 125.718V126.14L160.323 126.412V125.991C160.329 124.842 160.431 123.843 160.631 122.993C160.836 122.144 161.126 121.429 161.501 120.849C161.876 120.263 162.327 119.797 162.854 119.451C163.382 119.1 163.968 118.854 164.612 118.713C165.046 118.619 165.391 118.529 165.649 118.441C165.913 118.347 166.103 118.23 166.221 118.089C166.338 117.949 166.396 117.761 166.396 117.527ZM165.289 122.246C165.933 122.246 166.505 122.358 167.003 122.58C167.501 122.797 167.92 123.105 168.26 123.503C168.599 123.902 168.857 124.37 169.033 124.909C169.209 125.449 169.297 126.037 169.297 126.676V126.861C169.297 127.511 169.197 128.115 168.998 128.671C168.804 129.222 168.517 129.702 168.137 130.113C167.756 130.523 167.287 130.842 166.73 131.071C166.174 131.293 165.538 131.405 164.823 131.405C164.102 131.405 163.461 131.284 162.898 131.044C162.342 130.798 161.87 130.455 161.483 130.016C161.102 129.571 160.812 129.052 160.613 128.46C160.42 127.863 160.323 127.212 160.323 126.509V126.316C160.323 126.216 160.367 126.119 160.455 126.026C160.549 125.926 160.657 125.815 160.78 125.692C160.909 125.569 161.023 125.413 161.123 125.226C161.474 124.576 161.858 124.031 162.274 123.591C162.69 123.146 163.144 122.812 163.637 122.589C164.135 122.361 164.685 122.246 165.289 122.246ZM164.805 124.224C164.331 124.224 163.95 124.338 163.663 124.567C163.376 124.789 163.168 125.088 163.039 125.463C162.916 125.832 162.854 126.237 162.854 126.676V126.861C162.854 127.218 162.889 127.552 162.96 127.863C163.03 128.167 163.141 128.44 163.294 128.68C163.446 128.914 163.648 129.099 163.9 129.234C164.152 129.363 164.46 129.427 164.823 129.427C165.175 129.427 165.473 129.363 165.72 129.234C165.971 129.099 166.174 128.914 166.326 128.68C166.478 128.44 166.59 128.167 166.66 127.863C166.73 127.552 166.765 127.218 166.765 126.861V126.676C166.765 126.342 166.73 126.029 166.66 125.736C166.59 125.437 166.478 125.176 166.326 124.953C166.174 124.725 165.971 124.546 165.72 124.417C165.468 124.288 165.163 124.224 164.805 124.224ZM170.43 126.562V126.377C170.43 125.68 170.53 125.038 170.729 124.452C170.929 123.861 171.219 123.348 171.599 122.914C171.98 122.481 172.449 122.144 173.006 121.904C173.562 121.658 174.201 121.534 174.922 121.534C175.642 121.534 176.284 121.658 176.846 121.904C177.409 122.144 177.881 122.481 178.262 122.914C178.648 123.348 178.941 123.861 179.14 124.452C179.34 125.038 179.439 125.68 179.439 126.377V126.562C179.439 127.253 179.34 127.895 179.14 128.487C178.941 129.073 178.648 129.585 178.262 130.025C177.881 130.458 177.412 130.795 176.855 131.035C176.299 131.276 175.66 131.396 174.939 131.396C174.219 131.396 173.577 131.276 173.014 131.035C172.458 130.795 171.986 130.458 171.599 130.025C171.219 129.585 170.929 129.073 170.729 128.487C170.53 127.895 170.43 127.253 170.43 126.562ZM172.962 126.377V126.562C172.962 126.96 172.997 127.332 173.067 127.678C173.137 128.024 173.249 128.328 173.401 128.592C173.559 128.85 173.764 129.052 174.016 129.199C174.268 129.345 174.576 129.418 174.939 129.418C175.291 129.418 175.593 129.345 175.845 129.199C176.096 129.052 176.299 128.85 176.451 128.592C176.603 128.328 176.715 128.024 176.785 127.678C176.861 127.332 176.899 126.96 176.899 126.562V126.377C176.899 125.991 176.861 125.627 176.785 125.287C176.715 124.942 176.6 124.637 176.442 124.373C176.29 124.104 176.088 123.893 175.836 123.741C175.584 123.588 175.279 123.512 174.922 123.512C174.564 123.512 174.26 123.588 174.008 123.741C173.762 123.893 173.559 124.104 173.401 124.373C173.249 124.637 173.137 124.942 173.067 125.287C172.997 125.627 172.962 125.991 172.962 126.377ZM183.526 123.538V134.876H180.995V121.71H183.342L183.526 123.538ZM189.547 126.36V126.544C189.547 127.236 189.465 127.877 189.301 128.469C189.142 129.061 188.908 129.576 188.597 130.016C188.287 130.45 187.9 130.789 187.437 131.035C186.98 131.276 186.453 131.396 185.855 131.396C185.275 131.396 184.771 131.279 184.344 131.044C183.916 130.81 183.555 130.482 183.262 130.06C182.975 129.632 182.744 129.137 182.568 128.575C182.392 128.012 182.258 127.409 182.164 126.764V126.281C182.258 125.589 182.392 124.956 182.568 124.382C182.744 123.802 182.975 123.301 183.262 122.879C183.555 122.451 183.913 122.12 184.335 121.886C184.762 121.652 185.263 121.534 185.838 121.534C186.441 121.534 186.971 121.649 187.429 121.877C187.891 122.106 188.278 122.434 188.589 122.862C188.905 123.289 189.142 123.799 189.301 124.391C189.465 124.983 189.547 125.639 189.547 126.36ZM187.007 126.544V126.36C187.007 125.955 186.971 125.583 186.901 125.243C186.837 124.898 186.731 124.596 186.585 124.338C186.444 124.08 186.257 123.881 186.022 123.741C185.794 123.594 185.515 123.521 185.187 123.521C184.842 123.521 184.546 123.576 184.3 123.688C184.059 123.799 183.863 123.96 183.711 124.171C183.558 124.382 183.444 124.634 183.368 124.927C183.292 125.22 183.245 125.551 183.227 125.92V127.142C183.257 127.576 183.339 127.965 183.473 128.311C183.608 128.651 183.816 128.92 184.097 129.119C184.379 129.319 184.748 129.418 185.205 129.418C185.539 129.418 185.82 129.345 186.049 129.199C186.277 129.046 186.462 128.838 186.602 128.575C186.749 128.311 186.851 128.006 186.91 127.66C186.974 127.315 187.007 126.943 187.007 126.544ZM190.716 126.562V126.377C190.716 125.68 190.815 125.038 191.014 124.452C191.214 123.861 191.504 123.348 191.885 122.914C192.265 122.481 192.734 122.144 193.291 121.904C193.847 121.658 194.486 121.534 195.207 121.534C195.928 121.534 196.569 121.658 197.132 121.904C197.694 122.144 198.166 122.481 198.547 122.914C198.933 123.348 199.226 123.861 199.426 124.452C199.625 125.038 199.724 125.68 199.724 126.377V126.562C199.724 127.253 199.625 127.895 199.426 128.487C199.226 129.073 198.933 129.585 198.547 130.025C198.166 130.458 197.697 130.795 197.14 131.035C196.584 131.276 195.945 131.396 195.224 131.396C194.504 131.396 193.862 131.276 193.3 131.035C192.743 130.795 192.271 130.458 191.885 130.025C191.504 129.585 191.214 129.073 191.014 128.487C190.815 127.895 190.716 127.253 190.716 126.562ZM193.247 126.377V126.562C193.247 126.96 193.282 127.332 193.352 127.678C193.423 128.024 193.534 128.328 193.686 128.592C193.845 128.85 194.05 129.052 194.302 129.199C194.554 129.345 194.861 129.418 195.224 129.418C195.576 129.418 195.878 129.345 196.13 129.199C196.382 129.052 196.584 128.85 196.736 128.592C196.888 128.328 197 128.024 197.07 127.678C197.146 127.332 197.184 126.96 197.184 126.562V126.377C197.184 125.991 197.146 125.627 197.07 125.287C197 124.942 196.886 124.637 196.727 124.373C196.575 124.104 196.373 123.893 196.121 123.741C195.869 123.588 195.564 123.512 195.207 123.512C194.849 123.512 194.545 123.588 194.293 123.741C194.047 123.893 193.845 124.104 193.686 124.373C193.534 124.637 193.423 124.942 193.352 125.287C193.282 125.627 193.247 125.991 193.247 126.377ZM205.877 121.71V131.22H203.337V121.71H205.877ZM208.935 121.71V123.67H200.322V121.71H208.935Z" fill="#011C47"/>
<defs>
<clipPath id="clip0_1_333">
<rect width="150" height="32.45" fill="white" transform="translate(57.55 44.77)"/>
</clipPath>
<clipPath id="clip1_1_333">
<rect width="150" height="32.45" fill="white" transform="translate(57.55 44.77)"/>
</clipPath>
<clipPath id="clip2_1_333">
<rect width="150" height="32.4675" fill="white" transform="translate(57.55 44.7612)"/>
</clipPath>
</defs>
</svg>
