<svg width="266" height="180" viewBox="0 0 266 180" fill="none" xmlns="http://www.w3.org/2000/svg">
<rect x="0.879883" width="265.13" height="180" rx="5" fill="url(#paint0_linear_1_346)"/>
<g clip-path="url(#clip0_1_346)">
<g clip-path="url(#clip1_1_346)">
<g clip-path="url(#clip2_1_346)">
<path d="M63.2795 43.2304V42.3587C63.2795 41.2356 63.4994 40.1675 63.9313 39.1623C64.7952 37.1439 66.2874 35.6281 68.298 34.7485C69.3032 34.3087 70.3713 34.0888 71.5101 34.0888C72.3033 34.0888 72.9787 34.3637 73.5049 34.8977C74.039 35.4318 74.3139 36.0993 74.3139 36.8926C74.3139 37.6465 74.039 38.3298 73.4971 38.8481C73.2458 39.0837 72.9473 39.2722 72.6096 39.4136C72.2719 39.5549 71.9028 39.6335 71.518 39.6335H71.3923C71.0153 39.6335 70.6776 39.7356 70.3635 39.9005C69.3975 40.3953 68.8242 41.3691 68.8242 42.4451V43.2304H70.6933C71.0546 43.2383 71.3923 43.3168 71.7065 43.4503C72.0442 43.5917 72.3505 43.788 72.5939 44.0394C72.8452 44.2907 73.0416 44.5813 73.1829 44.9111C73.3322 45.2488 73.395 45.6101 73.395 46.0028C73.395 46.4033 73.3322 46.7724 73.1829 47.118C73.0416 47.4557 72.8452 47.7541 72.5939 48.0055C72.3505 48.2489 72.0442 48.4453 71.7065 48.5945C71.3609 48.7358 70.9996 48.8144 70.6069 48.8144H68.8242V51.8852V64.1054C68.8242 64.8437 68.5336 65.5662 68.0074 66.0845C67.489 66.6029 66.8058 66.9013 66.0675 66.9013C65.3293 66.9013 64.6146 66.6029 64.0884 66.0845C63.5622 65.5662 63.2795 64.8437 63.2795 64.1054L63.3031 52.003V51.2333V50.8013V49.8511V48.8222H63.1695V48.8144H61.8423C61.4653 48.8144 61.104 48.7358 60.7663 48.5945C60.4208 48.4453 60.1223 48.2489 59.8632 47.9976C59.6118 47.7306 59.4155 47.4321 59.2663 47.0866C59.1249 46.7489 59.0464 46.3876 59.0464 46.0028C59.0464 45.6101 59.1249 45.2488 59.2663 44.9111C59.4155 44.5813 59.6118 44.2907 59.8632 44.0394C60.1223 43.788 60.4208 43.5917 60.7663 43.4503C61.0805 43.3168 61.4103 43.2383 61.7559 43.2304H63.2795Z" fill="white"/>
<path fill-rule="evenodd" clip-rule="evenodd" d="M87.9399 43.2304C88.2226 43.2226 89.9661 43.2226 90.7908 43.4503C92.0002 43.6938 92.9427 44.7383 92.9976 46.042C93.0605 47.5578 91.8981 48.8458 90.3902 48.9165C90.2724 48.9165 90.1625 48.9165 90.0525 48.9086C90.0525 48.9243 88.4111 48.7515 88.1834 48.7594C84.7042 48.9165 82.0104 51.8537 82.1596 55.3329C82.3167 58.812 85.254 61.5137 88.7331 61.3566C92.2044 61.2074 94.9061 58.2623 94.749 54.7831C94.7412 54.5475 94.5055 53.1024 94.0108 52.0579C93.8458 51.6731 93.6809 51.2647 93.6574 50.8327C93.516 48.7044 95.1888 47.8248 96.2726 47.8091C97.3643 47.8012 98.1418 48.351 98.668 49.0735C100.144 51.3982 100.262 54.2805 100.278 54.5475C100.639 61.1446 95.503 66.6028 88.9687 66.8934C82.4424 67.1762 76.9213 62.1106 76.6307 55.5763C76.3479 49.0421 81.4135 43.5131 87.9399 43.2304Z" fill="white"/>
<path d="M154.146 54.9245C154.146 56.5816 153.832 58.1445 153.204 59.5896C151.947 62.4719 149.732 64.7102 146.866 65.9667C145.421 66.595 143.897 66.9013 142.263 66.9013C140.622 66.9013 139.075 66.595 137.63 65.9667C134.763 64.718 132.556 62.4876 131.331 59.5896C130.719 58.1445 130.412 56.5816 130.412 54.9245C130.412 53.291 130.719 51.7438 131.331 50.283C131.818 49.1285 132.454 48.084 133.216 47.1651C134.975 45.0368 137.575 43.5053 140.01 43.2305C141.557 43.0498 143.096 43.0263 144.596 43.5446C145.374 43.8116 145.868 44.1808 146.277 44.8562C146.646 45.453 146.646 46.1913 146.457 46.9609C146.363 47.3458 146.206 47.6835 145.986 47.9741C145.554 48.5631 144.973 48.8929 144.29 48.995C143.913 49.05 143.583 49.0186 143.222 48.9086C142.373 48.6573 141.085 48.673 140.237 48.8458C139.271 49.0422 138.737 49.4741 138.015 50.0396C137.292 50.6836 136.719 51.4846 136.334 52.4192C135.996 53.2046 135.831 54.0449 135.831 54.9245C135.831 55.8356 135.996 56.6759 136.334 57.4613C136.994 59.0555 138.18 60.2336 139.75 60.9169C140.528 61.2624 141.376 61.4273 142.263 61.4273C143.143 61.4273 143.976 61.2624 144.761 60.9169C146.332 60.2336 147.533 59.0555 148.217 57.4613C148.523 56.7466 148.688 55.9848 148.719 55.168L148.727 49.482V44.2436L148.719 37.6073C148.719 37.2067 148.79 36.8376 148.916 36.492C149.167 35.8009 149.614 35.3061 150.282 34.9999C150.612 34.8506 150.973 34.7721 151.366 34.7721C151.759 34.7721 152.112 34.8506 152.442 34.9999C153.125 35.3061 153.62 35.8088 153.918 36.492C154.068 36.8376 154.146 37.2067 154.146 37.6073V54.9245Z" fill="white"/>
<path fill-rule="evenodd" clip-rule="evenodd" d="M114.839 43.2304C115.113 43.2226 116.857 43.2226 117.689 43.4503C118.899 43.6938 119.834 44.7383 119.888 46.042C119.959 47.5578 118.789 48.8458 117.281 48.9165C117.171 48.9165 117.061 48.9165 116.951 48.9086C116.951 48.9243 115.302 48.7515 115.074 48.7594C111.603 48.9165 108.901 51.8537 109.058 55.3329C109.208 58.812 112.145 61.5137 115.624 61.3566C119.103 61.2074 121.797 58.2623 121.648 54.7831C121.632 54.5475 121.396 53.1024 120.902 52.0579C120.737 51.6731 120.58 51.2647 120.548 50.8327C120.415 48.7044 122.08 47.8248 123.171 47.8091C124.255 47.8012 125.033 48.351 125.559 49.0735C127.035 51.3982 127.161 54.2805 127.177 54.5475C127.53 61.1446 122.394 66.6028 115.867 66.8934C109.333 67.1762 103.812 62.1106 103.529 55.5763C103.247 49.0421 108.304 43.5131 114.839 43.2304Z" fill="white"/>
<path fill-rule="evenodd" clip-rule="evenodd" d="M167.458 43.3404C173.874 42.3822 179.851 46.7646 180.896 53.1417C180.958 53.3538 180.99 53.5737 180.99 53.8093C180.99 55.1208 179.898 56.1968 178.555 56.1968H167.458C166.123 56.1968 165.023 55.1208 165.023 53.8093C165.023 52.4899 166.123 51.4139 167.458 51.4139H174.361C173.034 49.5369 170.709 48.4531 168.275 48.8144C164.835 49.3327 162.455 52.537 162.974 55.9769C163.484 59.4246 166.696 61.7964 170.136 61.2781C170.38 61.2467 171.785 60.854 172.775 60.2571C173.136 60.0529 173.529 59.8487 173.961 59.778C176.058 59.4168 177.11 60.9875 177.236 62.0634C177.361 63.1472 176.898 63.9797 176.231 64.5766C174.071 66.2808 171.22 66.7128 170.961 66.7521C164.426 67.7966 158.466 63.2651 157.5 56.8015C156.534 50.338 160.987 44.3142 167.458 43.3404Z" fill="white"/>
<path fill-rule="evenodd" clip-rule="evenodd" d="M194.302 43.3404C200.718 42.3822 206.695 46.7646 207.739 53.1417C207.794 53.3538 207.834 53.5737 207.834 53.8093C207.834 55.1208 206.734 56.1968 205.399 56.1968H194.302C192.959 56.1968 191.867 55.1208 191.867 53.8093C191.867 52.4899 192.959 51.4139 194.302 51.4139H201.205C199.878 49.5369 197.553 48.4531 195.119 48.8144C191.671 49.3327 189.299 52.537 189.817 55.9769C190.328 59.4246 193.54 61.7964 196.98 61.2781C197.223 61.2467 198.629 60.854 199.619 60.2571C199.98 60.0529 200.373 59.8487 200.805 59.778C202.902 59.4168 203.954 60.9875 204.08 62.0634C204.205 63.1472 203.734 63.9797 203.074 64.5766C200.915 66.2808 198.064 66.7128 197.797 66.7521C191.27 67.7966 185.309 63.2651 184.336 56.8015C183.37 50.338 187.83 44.3142 194.302 43.3404Z" fill="white"/>
</g>
</g>
</g>
<path d="M69.3609 93.2128V93.8192C69.3609 94.7919 69.229 95.6649 68.9654 96.4384C68.7017 97.2118 68.3296 97.871 67.8492 98.4159C67.3687 98.955 66.7945 99.368 66.1265 99.6552C65.4644 99.9423 64.729 100.086 63.9205 100.086C63.1177 100.086 62.3824 99.9423 61.7144 99.6552C61.0523 99.368 60.4781 98.955 59.9917 98.4159C59.5054 97.871 59.1275 97.2118 58.858 96.4384C58.5943 95.6649 58.4624 94.7919 58.4624 93.8192V93.2128C58.4624 92.2343 58.5943 91.3612 58.858 90.5936C59.1216 89.8202 59.4937 89.161 59.9742 88.6161C60.4605 88.0712 61.0347 87.6552 61.6968 87.368C62.3648 87.0809 63.1001 86.9374 63.9029 86.9374C64.7115 86.9374 65.4468 87.0809 66.1089 87.368C66.7769 87.6552 67.3511 88.0712 67.8316 88.6161C68.3179 89.161 68.6929 89.8202 68.9566 90.5936C69.2261 91.3612 69.3609 92.2343 69.3609 93.2128ZM66.6978 93.8192V93.1952C66.6978 92.5155 66.6363 91.9178 66.5132 91.4022C66.3902 90.8866 66.2085 90.453 65.9683 90.1014C65.7281 89.7499 65.4351 89.4862 65.0894 89.3104C64.7437 89.1288 64.3482 89.038 63.9029 89.038C63.4576 89.038 63.0621 89.1288 62.7164 89.3104C62.3765 89.4862 62.0865 89.7499 61.8462 90.1014C61.6119 90.453 61.4332 90.8866 61.3101 91.4022C61.1871 91.9178 61.1255 92.5155 61.1255 93.1952V93.8192C61.1255 94.493 61.1871 95.0907 61.3101 95.6122C61.4332 96.1278 61.6148 96.5643 61.855 96.9218C62.0953 97.2733 62.3882 97.5399 62.7339 97.7216C63.0796 97.9032 63.4751 97.994 63.9205 97.994C64.3658 97.994 64.7613 97.9032 65.107 97.7216C65.4527 97.5399 65.7427 97.2733 65.9771 96.9218C66.2115 96.5643 66.3902 96.1278 66.5132 95.6122C66.6363 95.0907 66.6978 94.493 66.6978 93.8192ZM77.6138 94.2411V96.2098H72.7798V94.2411H77.6138ZM73.6236 90.4003V99.91H71.0923V90.4003H73.6236ZM79.3277 90.4003V99.91H76.7876V90.4003H79.3277ZM87.6949 90.4003V92.3866H83.0191V90.4003H87.6949ZM89.5494 90.4003V99.91H87.0181V90.4003H89.5494ZM82.3863 90.4003H84.8736L84.6187 95.1991C84.5835 95.8846 84.5103 96.4882 84.399 97.0096C84.2876 97.5311 84.1382 97.9764 83.9507 98.3456C83.7691 98.7147 83.5494 99.0165 83.2915 99.2509C83.0396 99.4794 82.7437 99.6464 82.4039 99.7518C82.0699 99.8573 81.7007 99.91 81.2964 99.91H80.523L80.4966 97.9149L80.8218 97.8798C81.0093 97.8622 81.1734 97.8094 81.314 97.7216C81.4605 97.6278 81.5835 97.496 81.6832 97.326C81.7886 97.1503 81.8765 96.9305 81.9468 96.6669C82.0171 96.3973 82.0728 96.0809 82.1138 95.7177C82.1607 95.3544 82.1929 94.9354 82.2105 94.4608L82.3863 90.4003ZM96.6421 97.7655V93.5292C96.6421 93.2245 96.5923 92.9637 96.4927 92.7469C96.3931 92.5243 96.2378 92.3514 96.0269 92.2284C95.8218 92.1053 95.5552 92.0438 95.2271 92.0438C94.9458 92.0438 94.7027 92.0936 94.4976 92.1932C94.2925 92.287 94.1343 92.4247 94.023 92.6063C93.9117 92.7821 93.856 92.9901 93.856 93.2303H91.3248C91.3248 92.826 91.4185 92.4423 91.606 92.079C91.7935 91.7157 92.066 91.3964 92.4234 91.121C92.7808 90.8397 93.2056 90.62 93.6978 90.4618C94.1958 90.3036 94.7525 90.2245 95.3677 90.2245C96.106 90.2245 96.7623 90.3475 97.3365 90.5936C97.9107 90.8397 98.3619 91.2089 98.69 91.701C99.024 92.1932 99.191 92.8085 99.191 93.5468V97.6161C99.191 98.1376 99.2232 98.5653 99.2876 98.8993C99.3521 99.2274 99.4458 99.5145 99.5689 99.7606V99.91H97.0113C96.8882 99.6522 96.7945 99.33 96.73 98.9432C96.6714 98.5507 96.6421 98.1581 96.6421 97.7655ZM96.9761 94.118L96.9937 95.5507H95.5787C95.2447 95.5507 94.9546 95.5887 94.7085 95.6649C94.4624 95.7411 94.2603 95.8495 94.1021 95.9901C93.9439 96.1249 93.8267 96.2831 93.7505 96.4647C93.6802 96.6464 93.6451 96.8456 93.6451 97.0624C93.6451 97.2792 93.6949 97.4755 93.7945 97.6512C93.8941 97.8212 94.0376 97.9559 94.2251 98.0555C94.4126 98.1493 94.6324 98.1962 94.8843 98.1962C95.2652 98.1962 95.5962 98.12 95.8775 97.9677C96.1587 97.8153 96.3755 97.6278 96.5279 97.4052C96.6861 97.1825 96.7681 96.9716 96.774 96.7723L97.4419 97.8446C97.3482 98.0848 97.2193 98.3339 97.0552 98.5917C96.897 98.8495 96.6949 99.0927 96.4488 99.3212C96.2027 99.5438 95.9068 99.7284 95.5611 99.8749C95.2154 100.016 94.8052 100.086 94.3306 100.086C93.7271 100.086 93.1792 99.9657 92.6871 99.7255C92.2007 99.4794 91.814 99.1425 91.5269 98.7147C91.2457 98.2811 91.105 97.7889 91.105 97.2382C91.105 96.7401 91.1988 96.2977 91.3863 95.911C91.5738 95.5243 91.8492 95.1991 92.2124 94.9354C92.5816 94.6659 93.0415 94.4637 93.5923 94.329C94.1431 94.1884 94.7818 94.118 95.5083 94.118H96.9761ZM103.665 96.3768L106.855 90.4003H109.386V99.91H106.855V93.9247L103.665 99.91H101.133V90.4003H103.665V96.3768ZM106.565 86.577H108.367C108.367 87.0809 108.241 87.5292 107.989 87.9218C107.743 88.3085 107.391 88.6132 106.934 88.8358C106.477 89.0526 105.938 89.161 105.317 89.161C104.374 89.161 103.627 88.9208 103.076 88.4403C102.531 87.9598 102.258 87.3387 102.258 86.577H104.051C104.051 86.8817 104.145 87.1542 104.333 87.3944C104.526 87.6346 104.854 87.7548 105.317 87.7548C105.774 87.7548 106.096 87.6346 106.284 87.3944C106.471 87.1542 106.565 86.8817 106.565 86.577ZM117.85 94.2411V96.2098H113.016V94.2411H117.85ZM113.86 90.4003V99.91H111.329V90.4003H113.86ZM119.564 90.4003V99.91H117.024V90.4003H119.564ZM131.798 97.0009L134.294 90.4003H136.36L132.651 99.91H130.946L127.254 90.4003H129.32L131.798 97.0009ZM128.713 90.4003V99.91H126.182V90.4003H128.713ZM134.945 99.91V90.4003H137.476V99.91H134.945ZM144.068 100.086C143.33 100.086 142.668 99.9686 142.082 99.7343C141.496 99.494 140.998 99.163 140.587 98.7411C140.183 98.3192 139.873 97.83 139.656 97.2733C139.439 96.7108 139.331 96.1132 139.331 95.4803V95.1288C139.331 94.4081 139.433 93.7489 139.638 93.1512C139.843 92.5536 140.136 92.035 140.517 91.5956C140.904 91.1561 141.373 90.8192 141.923 90.5848C142.474 90.3446 143.095 90.2245 143.787 90.2245C144.46 90.2245 145.058 90.3358 145.58 90.5585C146.101 90.7811 146.538 91.0975 146.889 91.5077C147.247 91.9178 147.516 92.41 147.698 92.9843C147.879 93.5526 147.97 94.1854 147.97 94.8827V95.9374H140.412V94.2499H145.483V94.0565C145.483 93.705 145.419 93.3915 145.29 93.1161C145.167 92.8348 144.979 92.6122 144.727 92.4481C144.475 92.2841 144.153 92.202 143.76 92.202C143.426 92.202 143.139 92.2753 142.899 92.4218C142.659 92.5682 142.462 92.7733 142.31 93.037C142.164 93.3007 142.052 93.6112 141.976 93.9686C141.906 94.3202 141.871 94.7069 141.871 95.1288V95.4803C141.871 95.8612 141.923 96.2128 142.029 96.535C142.14 96.8573 142.295 97.1356 142.495 97.37C142.7 97.6044 142.946 97.786 143.233 97.9149C143.526 98.0438 143.857 98.1083 144.226 98.1083C144.683 98.1083 145.108 98.0204 145.501 97.8446C145.899 97.663 146.242 97.3905 146.529 97.0272L147.759 98.3632C147.56 98.6503 147.288 98.9257 146.942 99.1893C146.602 99.453 146.192 99.6698 145.711 99.8397C145.231 100.004 144.683 100.086 144.068 100.086ZM155.924 94.2411V96.2098H151.09V94.2411H155.924ZM151.934 90.4003V99.91H149.403V90.4003H151.934ZM157.638 90.4003V99.91H155.098V90.4003H157.638ZM165.346 94.0829V96.0692H160.213V94.0829H165.346ZM162.349 90.4003V99.91H159.809V90.4003H162.349ZM163.632 95.2518V95.0673C163.632 94.37 163.732 93.7284 163.931 93.1425C164.13 92.5507 164.42 92.038 164.801 91.6044C165.188 91.1708 165.66 90.8339 166.216 90.5936C166.773 90.3475 167.409 90.2245 168.124 90.2245C168.85 90.2245 169.492 90.3475 170.048 90.5936C170.611 90.8339 171.085 91.1708 171.472 91.6044C171.859 92.038 172.149 92.5507 172.342 93.1425C172.542 93.7284 172.641 94.37 172.641 95.0673V95.2518C172.641 95.9432 172.542 96.5848 172.342 97.1766C172.149 97.7626 171.859 98.2753 171.472 98.7147C171.091 99.1483 170.62 99.4852 170.057 99.7255C169.501 99.9657 168.862 100.086 168.141 100.086C167.42 100.086 166.782 99.9657 166.225 99.7255C165.669 99.4852 165.197 99.1483 164.81 98.7147C164.423 98.2753 164.13 97.7626 163.931 97.1766C163.732 96.5848 163.632 95.9432 163.632 95.2518ZM166.164 95.0673V95.2518C166.164 95.6503 166.199 96.0223 166.269 96.368C166.345 96.7137 166.46 97.0184 166.612 97.2821C166.77 97.5399 166.975 97.7421 167.227 97.8885C167.479 98.035 167.784 98.1083 168.141 98.1083C168.499 98.1083 168.8 98.035 169.046 97.8885C169.298 97.7421 169.501 97.5399 169.653 97.2821C169.811 97.0184 169.925 96.7137 169.996 96.368C170.072 96.0223 170.11 95.6503 170.11 95.2518V95.0673C170.11 94.6805 170.072 94.3173 169.996 93.9774C169.925 93.6317 169.811 93.327 169.653 93.0634C169.501 92.7938 169.298 92.5829 169.046 92.4305C168.794 92.2782 168.487 92.202 168.124 92.202C167.772 92.202 167.47 92.2782 167.218 92.4305C166.972 92.5829 166.77 92.7938 166.612 93.0634C166.46 93.327 166.345 93.6317 166.269 93.9774C166.199 94.3173 166.164 94.6805 166.164 95.0673ZM180.411 90.4003H182.942L182.863 93.5819C182.839 94.6014 182.722 95.4774 182.511 96.2098C182.3 96.9423 182.019 97.5575 181.668 98.0555C181.316 98.5536 180.915 98.952 180.463 99.2509C180.018 99.5438 179.549 99.7635 179.057 99.91H178.583L178.556 97.9589L178.82 97.9325C179.119 97.6219 179.365 97.3202 179.558 97.0272C179.752 96.7284 179.901 96.4149 180.006 96.0868C180.112 95.7587 180.188 95.3925 180.235 94.9882C180.288 94.5839 180.32 94.1151 180.332 93.5819L180.411 90.4003ZM181.096 90.4003H187.398V99.91H184.876V92.4305H181.096V90.4003ZM178.002 97.9325H188.76V102.766H186.229V99.91H180.595V102.766H178.002V97.9325ZM196.451 90.4003V92.3866H191.775V90.4003H196.451ZM198.305 90.4003V99.91H195.774V90.4003H198.305ZM191.142 90.4003H193.629L193.375 95.1991C193.339 95.8846 193.266 96.4882 193.155 97.0096C193.044 97.5311 192.894 97.9764 192.707 98.3456C192.525 98.7147 192.305 99.0165 192.047 99.2509C191.795 99.4794 191.5 99.6464 191.16 99.7518C190.826 99.8573 190.457 99.91 190.052 99.91H189.279L189.252 97.9149L189.578 97.8798C189.765 97.8622 189.929 97.8094 190.07 97.7216C190.216 97.6278 190.339 97.496 190.439 97.326C190.544 97.1503 190.632 96.9305 190.703 96.6669C190.773 96.3973 190.829 96.0809 190.87 95.7177C190.917 95.3544 190.949 94.9354 190.966 94.4608L191.142 90.4003ZM202.313 95.1639H204.879L202.234 99.91H199.676L202.313 95.1639ZM204.018 90.4003H208.193V99.91H205.662V92.3602H204.018C203.672 92.3602 203.385 92.4247 203.157 92.5536C202.928 92.6766 202.758 92.8378 202.647 93.037C202.542 93.2303 202.489 93.4296 202.489 93.6346C202.489 93.8339 202.542 94.0272 202.647 94.2147C202.752 94.4022 202.917 94.5575 203.139 94.6805C203.362 94.8036 203.64 94.8651 203.974 94.8651H206.602V96.5878H203.974C203.347 96.5878 202.785 96.5116 202.287 96.3593C201.794 96.2069 201.373 95.996 201.021 95.7264C200.675 95.451 200.409 95.1317 200.221 94.7684C200.04 94.3993 199.949 93.995 199.949 93.5555C199.949 93.0985 200.043 92.6796 200.23 92.2987C200.418 91.9178 200.687 91.5839 201.039 91.2968C201.39 91.0096 201.815 90.7899 202.313 90.6376C202.817 90.4794 203.385 90.4003 204.018 90.4003ZM80.4175 113.228V124.566H77.8863V111.4H80.233L80.4175 113.228ZM86.438 116.05V116.234C86.438 116.926 86.356 117.567 86.1919 118.159C86.0337 118.751 85.7994 119.266 85.4888 119.706C85.1783 120.14 84.7915 120.479 84.3287 120.725C83.8716 120.966 83.3443 121.086 82.7466 121.086C82.1665 121.086 81.6626 120.969 81.2349 120.734C80.8072 120.5 80.4468 120.172 80.1539 119.75C79.8667 119.322 79.6353 118.827 79.4595 118.265C79.2837 117.702 79.149 117.099 79.0552 116.454V115.971C79.149 115.279 79.2837 114.646 79.4595 114.072C79.6353 113.492 79.8667 112.991 80.1539 112.569C80.4468 112.141 80.8042 111.81 81.2261 111.576C81.6539 111.342 82.1548 111.224 82.729 111.224C83.3326 111.224 83.8628 111.339 84.3199 111.567C84.7828 111.796 85.1695 112.124 85.48 112.552C85.7964 112.979 86.0337 113.489 86.1919 114.081C86.356 114.673 86.438 115.329 86.438 116.05ZM83.898 116.234V116.05C83.898 115.645 83.8628 115.273 83.7925 114.933C83.7281 114.588 83.6226 114.286 83.4761 114.028C83.3355 113.77 83.148 113.571 82.9136 113.431C82.6851 113.284 82.4068 113.211 82.0787 113.211C81.733 113.211 81.4371 113.266 81.191 113.378C80.9507 113.489 80.7544 113.65 80.6021 113.861C80.4498 114.072 80.3355 114.324 80.2593 114.617C80.1832 114.91 80.1363 115.241 80.1187 115.61V116.832C80.148 117.266 80.23 117.655 80.3648 118.001C80.4996 118.341 80.7076 118.61 80.9888 118.809C81.2701 119.009 81.6392 119.108 82.0962 119.108C82.4302 119.108 82.7115 119.035 82.94 118.889C83.1685 118.736 83.3531 118.528 83.4937 118.265C83.6402 118.001 83.7427 117.696 83.8013 117.35C83.8658 117.005 83.898 116.633 83.898 116.234ZM92.3882 121.086C91.6499 121.086 90.9878 120.969 90.4019 120.734C89.816 120.494 89.3179 120.163 88.9078 119.741C88.5035 119.319 88.1929 118.83 87.9761 118.273C87.7593 117.711 87.6509 117.113 87.6509 116.48V116.129C87.6509 115.408 87.7535 114.749 87.9585 114.151C88.1636 113.554 88.4566 113.035 88.8374 112.596C89.2242 112.156 89.6929 111.819 90.2437 111.585C90.7945 111.345 91.4156 111.224 92.107 111.224C92.7808 111.224 93.3785 111.336 93.8999 111.558C94.4214 111.781 94.858 112.098 95.2095 112.508C95.5669 112.918 95.8365 113.41 96.0181 113.984C96.1998 114.553 96.2906 115.185 96.2906 115.883V116.937H88.732V115.25H93.8033V115.057C93.8033 114.705 93.7388 114.391 93.6099 114.116C93.4869 113.835 93.2994 113.612 93.0474 113.448C92.7955 113.284 92.4732 113.202 92.0806 113.202C91.7466 113.202 91.4595 113.275 91.2193 113.422C90.979 113.568 90.7828 113.773 90.6304 114.037C90.4839 114.301 90.3726 114.611 90.2964 114.969C90.2261 115.32 90.191 115.707 90.191 116.129V116.48C90.191 116.861 90.2437 117.213 90.3492 117.535C90.4605 117.857 90.6158 118.136 90.815 118.37C91.0201 118.604 91.2662 118.786 91.5533 118.915C91.8462 119.044 92.1773 119.108 92.5464 119.108C93.0035 119.108 93.4283 119.02 93.8208 118.845C94.2193 118.663 94.5621 118.391 94.8492 118.027L96.0796 119.363C95.8804 119.65 95.608 119.926 95.2623 120.189C94.9224 120.453 94.5123 120.67 94.0318 120.84C93.5513 121.004 93.0035 121.086 92.3882 121.086ZM101.661 119.108C101.971 119.108 102.247 119.05 102.487 118.932C102.727 118.809 102.915 118.64 103.049 118.423C103.19 118.2 103.263 117.939 103.269 117.641H105.651C105.645 118.308 105.466 118.903 105.115 119.425C104.763 119.94 104.292 120.348 103.7 120.646C103.108 120.939 102.446 121.086 101.713 121.086C100.975 121.086 100.331 120.963 99.7798 120.717C99.2349 120.471 98.7808 120.131 98.4175 119.697C98.0542 119.258 97.7818 118.748 97.6001 118.168C97.4185 117.582 97.3277 116.955 97.3277 116.287V116.032C97.3277 115.358 97.4185 114.731 97.6001 114.151C97.7818 113.565 98.0542 113.056 98.4175 112.622C98.7808 112.182 99.2349 111.84 99.7798 111.594C100.325 111.348 100.963 111.224 101.696 111.224C102.475 111.224 103.158 111.374 103.744 111.673C104.335 111.972 104.798 112.399 105.132 112.956C105.472 113.507 105.645 114.16 105.651 114.916H103.269C103.263 114.599 103.196 114.312 103.067 114.055C102.944 113.797 102.762 113.592 102.522 113.439C102.288 113.281 101.998 113.202 101.652 113.202C101.283 113.202 100.981 113.281 100.747 113.439C100.512 113.592 100.331 113.803 100.202 114.072C100.073 114.336 99.982 114.638 99.9292 114.977C99.8824 115.311 99.8589 115.663 99.8589 116.032V116.287C99.8589 116.656 99.8824 117.011 99.9292 117.35C99.9761 117.69 100.064 117.992 100.193 118.256C100.328 118.519 100.512 118.727 100.747 118.88C100.981 119.032 101.286 119.108 101.661 119.108ZM111.961 111.4V120.91H109.421V111.4H111.961ZM115.02 111.4V113.36H106.407V111.4H115.02ZM115.609 116.252V116.067C115.609 115.37 115.709 114.728 115.908 114.142C116.107 113.551 116.397 113.038 116.778 112.604C117.159 112.171 117.627 111.834 118.184 111.594C118.741 111.348 119.379 111.224 120.1 111.224C120.821 111.224 121.462 111.348 122.025 111.594C122.587 111.834 123.059 112.171 123.44 112.604C123.827 113.038 124.12 113.551 124.319 114.142C124.518 114.728 124.618 115.37 124.618 116.067V116.252C124.618 116.943 124.518 117.585 124.319 118.177C124.12 118.763 123.827 119.275 123.44 119.715C123.059 120.148 122.59 120.485 122.034 120.725C121.477 120.966 120.838 121.086 120.118 121.086C119.397 121.086 118.755 120.966 118.193 120.725C117.636 120.485 117.165 120.148 116.778 119.715C116.397 119.275 116.107 118.763 115.908 118.177C115.709 117.585 115.609 116.943 115.609 116.252ZM118.14 116.067V116.252C118.14 116.65 118.175 117.022 118.246 117.368C118.316 117.714 118.427 118.018 118.58 118.282C118.738 118.54 118.943 118.742 119.195 118.889C119.447 119.035 119.754 119.108 120.118 119.108C120.469 119.108 120.771 119.035 121.023 118.889C121.275 118.742 121.477 118.54 121.629 118.282C121.782 118.018 121.893 117.714 121.963 117.368C122.04 117.022 122.078 116.65 122.078 116.252V116.067C122.078 115.681 122.04 115.317 121.963 114.977C121.893 114.632 121.779 114.327 121.621 114.063C121.468 113.794 121.266 113.583 121.014 113.431C120.762 113.278 120.458 113.202 120.1 113.202C119.743 113.202 119.438 113.278 119.186 113.431C118.94 113.583 118.738 113.794 118.58 114.063C118.427 114.327 118.316 114.632 118.246 114.977C118.175 115.317 118.14 115.681 118.14 116.067ZM128.705 113.228V124.566H126.173V111.4H128.52L128.705 113.228ZM134.725 116.05V116.234C134.725 116.926 134.643 117.567 134.479 118.159C134.321 118.751 134.086 119.266 133.776 119.706C133.465 120.14 133.079 120.479 132.616 120.725C132.159 120.966 131.631 121.086 131.034 121.086C130.454 121.086 129.95 120.969 129.522 120.734C129.094 120.5 128.734 120.172 128.441 119.75C128.154 119.322 127.922 118.827 127.747 118.265C127.571 117.702 127.436 117.099 127.342 116.454V115.971C127.436 115.279 127.571 114.646 127.747 114.072C127.922 113.492 128.154 112.991 128.441 112.569C128.734 112.141 129.091 111.81 129.513 111.576C129.941 111.342 130.442 111.224 131.016 111.224C131.62 111.224 132.15 111.339 132.607 111.567C133.07 111.796 133.457 112.124 133.767 112.552C134.084 112.979 134.321 113.489 134.479 114.081C134.643 114.673 134.725 115.329 134.725 116.05ZM132.185 116.234V116.05C132.185 115.645 132.15 115.273 132.08 114.933C132.015 114.588 131.91 114.286 131.763 114.028C131.623 113.77 131.435 113.571 131.201 113.431C130.972 113.284 130.694 113.211 130.366 113.211C130.02 113.211 129.724 113.266 129.478 113.378C129.238 113.489 129.042 113.65 128.889 113.861C128.737 114.072 128.623 114.324 128.546 114.617C128.47 114.91 128.423 115.241 128.406 115.61V116.832C128.435 117.266 128.517 117.655 128.652 118.001C128.787 118.341 128.995 118.61 129.276 118.809C129.557 119.009 129.926 119.108 130.383 119.108C130.717 119.108 130.999 119.035 131.227 118.889C131.456 118.736 131.64 118.528 131.781 118.265C131.927 118.001 132.03 117.696 132.088 117.35C132.153 117.005 132.185 116.633 132.185 116.234ZM141.431 118.766V114.529C141.431 114.224 141.381 113.964 141.282 113.747C141.182 113.524 141.027 113.351 140.816 113.228C140.611 113.105 140.344 113.044 140.016 113.044C139.735 113.044 139.492 113.094 139.287 113.193C139.082 113.287 138.923 113.425 138.812 113.606C138.701 113.782 138.645 113.99 138.645 114.23H136.114C136.114 113.826 136.208 113.442 136.395 113.079C136.583 112.716 136.855 112.396 137.212 112.121C137.57 111.84 137.995 111.62 138.487 111.462C138.985 111.304 139.542 111.224 140.157 111.224C140.895 111.224 141.551 111.348 142.126 111.594C142.7 111.84 143.151 112.209 143.479 112.701C143.813 113.193 143.98 113.808 143.98 114.547V118.616C143.98 119.138 144.012 119.565 144.077 119.899C144.141 120.227 144.235 120.515 144.358 120.761V120.91H141.8C141.677 120.652 141.584 120.33 141.519 119.943C141.46 119.551 141.431 119.158 141.431 118.766ZM141.765 115.118L141.783 116.551H140.368C140.034 116.551 139.744 116.589 139.498 116.665C139.252 116.741 139.049 116.849 138.891 116.99C138.733 117.125 138.616 117.283 138.54 117.465C138.469 117.646 138.434 117.846 138.434 118.062C138.434 118.279 138.484 118.475 138.584 118.651C138.683 118.821 138.827 118.956 139.014 119.056C139.202 119.149 139.421 119.196 139.673 119.196C140.054 119.196 140.385 119.12 140.667 118.968C140.948 118.815 141.165 118.628 141.317 118.405C141.475 118.182 141.557 117.972 141.563 117.772L142.231 118.845C142.137 119.085 142.008 119.334 141.844 119.592C141.686 119.849 141.484 120.093 141.238 120.321C140.992 120.544 140.696 120.728 140.35 120.875C140.004 121.016 139.594 121.086 139.12 121.086C138.516 121.086 137.968 120.966 137.476 120.725C136.99 120.479 136.603 120.142 136.316 119.715C136.035 119.281 135.894 118.789 135.894 118.238C135.894 117.74 135.988 117.298 136.175 116.911C136.363 116.524 136.638 116.199 137.002 115.935C137.371 115.666 137.831 115.464 138.381 115.329C138.932 115.188 139.571 115.118 140.297 115.118H141.765ZM152.444 115.241V117.21H147.61V115.241H152.444ZM148.454 111.4V120.91H145.922V111.4H148.454ZM154.158 111.4V120.91H151.618V111.4H154.158ZM155.722 116.252V116.067C155.722 115.37 155.822 114.728 156.021 114.142C156.22 113.551 156.51 113.038 156.891 112.604C157.272 112.171 157.741 111.834 158.297 111.594C158.854 111.348 159.493 111.224 160.213 111.224C160.934 111.224 161.576 111.348 162.138 111.594C162.701 111.834 163.172 112.171 163.553 112.604C163.94 113.038 164.233 113.551 164.432 114.142C164.631 114.728 164.731 115.37 164.731 116.067V116.252C164.731 116.943 164.631 117.585 164.432 118.177C164.233 118.763 163.94 119.275 163.553 119.715C163.172 120.148 162.704 120.485 162.147 120.725C161.59 120.966 160.952 121.086 160.231 121.086C159.51 121.086 158.869 120.966 158.306 120.725C157.75 120.485 157.278 120.148 156.891 119.715C156.51 119.275 156.22 118.763 156.021 118.177C155.822 117.585 155.722 116.943 155.722 116.252ZM158.253 116.067V116.252C158.253 116.65 158.289 117.022 158.359 117.368C158.429 117.714 158.541 118.018 158.693 118.282C158.851 118.54 159.056 118.742 159.308 118.889C159.56 119.035 159.868 119.108 160.231 119.108C160.583 119.108 160.884 119.035 161.136 118.889C161.388 118.742 161.59 118.54 161.743 118.282C161.895 118.018 162.006 117.714 162.077 117.368C162.153 117.022 162.191 116.65 162.191 116.252V116.067C162.191 115.681 162.153 115.317 162.077 114.977C162.006 114.632 161.892 114.327 161.734 114.063C161.582 113.794 161.379 113.583 161.127 113.431C160.876 113.278 160.571 113.202 160.213 113.202C159.856 113.202 159.551 113.278 159.299 113.431C159.053 113.583 158.851 113.794 158.693 114.063C158.541 114.327 158.429 114.632 158.359 114.977C158.289 115.317 158.253 115.681 158.253 116.067ZM171.024 116.937H168.044L168.027 115.276H170.488C170.816 115.276 171.083 115.244 171.288 115.18C171.493 115.109 171.642 115.007 171.736 114.872C171.835 114.731 171.885 114.561 171.885 114.362C171.885 114.186 171.853 114.037 171.789 113.914C171.73 113.785 171.639 113.68 171.516 113.598C171.393 113.516 171.238 113.457 171.05 113.422C170.869 113.381 170.655 113.36 170.409 113.36H168.985V120.91H166.454V111.4H170.409C171.03 111.4 171.586 111.456 172.079 111.567C172.571 111.673 172.99 111.834 173.335 112.051C173.687 112.267 173.954 112.543 174.135 112.877C174.323 113.205 174.417 113.595 174.417 114.046C174.417 114.339 174.349 114.614 174.214 114.872C174.085 115.13 173.892 115.358 173.634 115.557C173.377 115.757 173.057 115.921 172.676 116.05C172.301 116.173 171.868 116.249 171.376 116.278L171.024 116.937ZM171.024 120.91H167.42L168.291 118.95H171.024C171.335 118.95 171.589 118.912 171.789 118.836C171.988 118.76 172.134 118.648 172.228 118.502C172.328 118.349 172.377 118.168 172.377 117.957C172.377 117.752 172.334 117.573 172.246 117.421C172.158 117.268 172.014 117.151 171.815 117.069C171.622 116.981 171.358 116.937 171.024 116.937H168.66L168.677 115.276H171.367L171.982 115.944C172.65 115.985 173.201 116.111 173.634 116.322C174.068 116.533 174.387 116.803 174.592 117.131C174.803 117.453 174.909 117.807 174.909 118.194C174.909 118.645 174.824 119.041 174.654 119.381C174.484 119.721 174.232 120.005 173.898 120.233C173.57 120.456 173.166 120.626 172.685 120.743C172.205 120.854 171.651 120.91 171.024 120.91ZM183.469 117.377L186.66 111.4H189.191V120.91H186.66V114.925L183.469 120.91H180.938V111.4H183.469V117.377ZM102.153 132.4V134.387H98.1978V141.91H95.6665V132.4H102.153ZM102.663 137.252V137.067C102.663 136.37 102.762 135.728 102.961 135.142C103.161 134.551 103.451 134.038 103.832 133.604C104.212 133.171 104.681 132.834 105.238 132.594C105.794 132.348 106.433 132.224 107.154 132.224C107.875 132.224 108.516 132.348 109.079 132.594C109.641 132.834 110.113 133.171 110.494 133.604C110.88 134.038 111.173 134.551 111.373 135.142C111.572 135.728 111.671 136.37 111.671 137.067V137.252C111.671 137.943 111.572 138.585 111.373 139.177C111.173 139.763 110.88 140.275 110.494 140.715C110.113 141.148 109.644 141.485 109.087 141.725C108.531 141.966 107.892 142.086 107.171 142.086C106.451 142.086 105.809 141.966 105.247 141.725C104.69 141.485 104.218 141.148 103.832 140.715C103.451 140.275 103.161 139.763 102.961 139.177C102.762 138.585 102.663 137.943 102.663 137.252ZM105.194 137.067V137.252C105.194 137.65 105.229 138.022 105.299 138.368C105.37 138.714 105.481 139.018 105.633 139.282C105.792 139.54 105.997 139.742 106.249 139.889C106.501 140.035 106.808 140.108 107.171 140.108C107.523 140.108 107.825 140.035 108.077 139.889C108.329 139.742 108.531 139.54 108.683 139.282C108.835 139.018 108.947 138.714 109.017 138.368C109.093 138.022 109.131 137.65 109.131 137.252V137.067C109.131 136.681 109.093 136.317 109.017 135.977C108.947 135.632 108.833 135.327 108.674 135.063C108.522 134.794 108.32 134.583 108.068 134.431C107.816 134.278 107.511 134.202 107.154 134.202C106.796 134.202 106.492 134.278 106.24 134.431C105.994 134.583 105.792 134.794 105.633 135.063C105.481 135.327 105.37 135.632 105.299 135.977C105.229 136.317 105.194 136.681 105.194 137.067ZM117.156 140.108C117.466 140.108 117.742 140.05 117.982 139.932C118.222 139.809 118.41 139.64 118.544 139.423C118.685 139.2 118.758 138.939 118.764 138.641H121.146C121.14 139.308 120.961 139.903 120.61 140.425C120.258 140.94 119.787 141.348 119.195 141.646C118.603 141.939 117.941 142.086 117.209 142.086C116.47 142.086 115.826 141.963 115.275 141.717C114.73 141.471 114.276 141.131 113.913 140.697C113.549 140.258 113.277 139.748 113.095 139.168C112.914 138.582 112.823 137.955 112.823 137.287V137.032C112.823 136.358 112.914 135.731 113.095 135.151C113.277 134.565 113.549 134.056 113.913 133.622C114.276 133.182 114.73 132.84 115.275 132.594C115.82 132.348 116.459 132.224 117.191 132.224C117.97 132.224 118.653 132.374 119.239 132.673C119.831 132.972 120.294 133.399 120.627 133.956C120.967 134.507 121.14 135.16 121.146 135.916H118.764C118.758 135.599 118.691 135.312 118.562 135.055C118.439 134.797 118.257 134.592 118.017 134.439C117.783 134.281 117.493 134.202 117.147 134.202C116.778 134.202 116.476 134.281 116.242 134.439C116.007 134.592 115.826 134.803 115.697 135.072C115.568 135.336 115.477 135.638 115.424 135.977C115.377 136.311 115.354 136.663 115.354 137.032V137.287C115.354 137.656 115.377 138.011 115.424 138.35C115.471 138.69 115.559 138.992 115.688 139.256C115.823 139.519 116.007 139.727 116.242 139.88C116.476 140.032 116.781 140.108 117.156 140.108ZM127.457 132.4V141.91H124.917V132.4H127.457ZM130.515 132.4V134.36H121.902V132.4H130.515ZM134.33 138.377L137.52 132.4H140.051V141.91H137.52V135.925L134.33 141.91H131.798V132.4H134.33V138.377ZM148.515 136.241V138.21H143.681V136.241H148.515ZM144.525 132.4V141.91H141.994V132.4H144.525ZM150.229 132.4V141.91H147.689V132.4H150.229ZM154.72 138.377L157.911 132.4H160.442V141.91H157.911V135.925L154.72 141.91H152.189V132.4H154.72V138.377ZM162.384 141.91V132.4H164.916V139.932H168.097V132.4H170.637V141.91H162.384ZM172.061 139.941L171.894 144.731H169.539V141.91H168.475V139.941H172.061Z" fill="white"/>
<defs>
<linearGradient id="paint0_linear_1_346" x1="133.445" y1="0" x2="133.445" y2="180" gradientUnits="userSpaceOnUse">
<stop offset="0.2" stop-color="#671ABF"/>
<stop offset="0.7" stop-color="#A03291"/>
<stop offset="1" stop-color="#D24089"/>
</linearGradient>
<clipPath id="clip0_1_346">
<rect width="150" height="32.81" fill="white" transform="translate(58.4399 34.09)"/>
</clipPath>
<clipPath id="clip1_1_346">
<rect width="150" height="32.81" fill="white" transform="translate(58.4399 34.09)"/>
</clipPath>
<clipPath id="clip2_1_346">
<rect width="150" height="32.8125" fill="white" transform="translate(58.4399 34.0888)"/>
</clipPath>
</defs>
</svg>
