<svg width="139" height="27" viewBox="0 0 139 27" fill="none" xmlns="http://www.w3.org/2000/svg">
<g clip-path="url(#clip0_1_163)">
<g clip-path="url(#clip1_1_163)">
<path d="M94.5236 13.7595C94.5236 14.6974 94.689 15.5711 95.0287 16.3898C95.3686 17.2084 95.837 17.9165 96.4342 18.5237C97.022 19.1306 97.7292 19.6088 98.5466 19.9583C99.3549 20.3078 100.228 20.4826 101.164 20.4826C102.111 20.4826 102.965 20.3078 103.718 19.949C104.462 19.5905 105.105 19.103 105.619 18.4867C106.143 17.8704 106.547 17.1531 106.832 16.3254C107.116 15.4977 107.254 14.6146 107.254 13.6766V3.48602C107.254 3.06285 107.337 2.66735 107.502 2.30881C107.667 1.95002 107.897 1.63723 108.182 1.37072C108.467 1.10395 108.797 0.892498 109.165 0.736106C109.532 0.579715 109.918 0.506042 110.331 0.506042C110.754 0.506042 111.139 0.579715 111.488 0.736106C111.838 0.892498 112.15 1.10395 112.416 1.37072C112.683 1.63723 112.894 1.95002 113.041 2.30881C113.188 2.66735 113.261 3.06285 113.261 3.48602V13.6122C113.261 15.378 112.967 17.0427 112.37 18.6064C111.773 20.1698 110.937 21.531 109.872 22.6992C108.806 23.8671 107.53 24.7961 106.042 25.4768C104.554 26.1574 102.928 26.4976 101.164 26.4976C99.401 26.4976 97.7566 26.1574 96.223 25.4861C94.689 24.8145 93.3479 23.9041 92.209 22.7452C91.0701 21.5864 90.17 20.2344 89.5085 18.6891C88.8472 17.1441 88.5166 15.4977 88.5166 13.7502V3.48602C88.5166 3.06285 88.5993 2.66735 88.7555 2.30881C88.9116 1.95002 89.1228 1.63723 89.389 1.37072C89.6555 1.10395 89.9771 0.892498 90.3444 0.736106C90.7118 0.579715 91.0975 0.506042 91.5108 0.506042C91.9151 0.506042 92.3008 0.579715 92.6684 0.736106C93.0357 0.892498 93.357 1.10395 93.6419 1.37072C93.9174 1.63723 94.1286 1.95002 94.2847 2.30881C94.4409 2.66735 94.5236 3.06285 94.5236 3.48602V13.7595Z" fill="#011C47"/>
<path fill-rule="evenodd" clip-rule="evenodd" d="M85.0825 20.4655C86.7506 20.4655 88.1026 21.8177 88.1026 23.4856C88.1026 25.1536 86.7506 26.5059 85.0825 26.5059C83.4147 26.5059 82.0625 25.1536 82.0625 23.4856C82.0625 21.8177 83.4147 20.4655 85.0825 20.4655Z" fill="#6682A9"/>
<path d="M120.68 0.51355H134.219C134.715 0.519495 135.102 0.598079 135.556 0.787558C136.656 1.27638 137.324 2.27108 137.324 3.37927C137.322 3.94615 137.138 4.50063 136.791 4.96929L121.811 25.2565C120.852 26.5555 118.911 26.897 117.498 26.015C116.085 25.133 115.713 23.3483 116.673 22.0493L128.051 6.63919H120.838C118.971 6.63919 117.443 5.26579 117.443 3.5871C117.443 2.92741 117.679 2.31503 118.079 1.81432C118.634 1.03287 119.594 0.51355 120.68 0.51355ZM128.987 20.3924H135.676C137.384 20.3924 138.781 21.766 138.781 23.4447C138.781 25.1234 137.384 26.4971 135.676 26.4971H128.987C127.279 26.4971 125.882 25.1234 125.882 23.4447C125.882 21.766 127.279 20.3924 128.987 20.3924Z" fill="#011C47"/>
<path d="M79.1301 23.5494C79.1301 23.9715 79.0474 24.357 78.8915 24.715C78.7356 25.0727 78.534 25.3847 78.2773 25.651C78.0116 25.9173 77.7089 26.1282 77.3514 26.275C76.9846 26.4221 76.6087 26.4955 76.2052 26.4955C75.7926 26.4955 75.4077 26.4221 75.0226 26.275C74.6467 26.1282 74.3256 25.9263 74.0416 25.6603C73.7665 25.3941 73.5465 25.082 73.3814 24.724C73.2164 24.3663 73.134 23.9715 73.134 23.5494V13.3253C73.134 13.1784 73.1523 13.0683 73.1888 12.9949C73.1523 12.0956 72.9688 11.2511 72.6387 10.4619C72.3088 9.68172 71.8596 8.99334 71.2911 8.40603C70.7227 7.81872 70.0625 7.35058 69.3015 7.01091C68.5404 6.67125 67.697 6.50607 66.7803 6.50607C65.8451 6.50607 64.9832 6.67125 64.1948 7.01091C63.4061 7.35058 62.7369 7.82777 62.1778 8.43343C61.6184 9.03935 61.1784 9.74583 60.8573 10.5627C60.5365 11.3795 60.3716 12.2515 60.3716 13.1875V23.5494C60.3716 23.9715 60.2982 24.3663 60.1514 24.724C60.0048 25.082 59.7939 25.3941 59.5281 25.6603C59.2621 25.9263 58.9504 26.1282 58.6019 26.275C58.2537 26.4221 57.8686 26.4955 57.4467 26.4955C57.0341 26.4955 56.6492 26.4221 56.2824 26.275C55.9156 26.1282 55.5858 25.9173 55.3014 25.651C55.0171 25.3847 54.7881 25.0727 54.6229 24.715C54.4579 24.357 54.3755 23.9715 54.3755 23.5494V13.1691C54.3755 11.4072 54.6963 9.75514 55.3288 8.2225C55.9616 6.6896 56.8325 5.3498 57.942 4.20258C59.0512 3.05537 60.3623 2.15579 61.8751 1.49507C63.3971 0.834344 65.0199 0.503983 66.771 0.503983C68.5314 0.503983 70.1633 0.834344 71.667 1.49507C73.1704 2.15579 74.4725 3.05537 75.5819 4.20258C76.6821 5.3498 77.544 6.6896 78.1765 8.2225C78.8091 9.75514 79.1301 11.4072 79.1301 13.1691V23.5494Z" fill="#011C47"/>
<path d="M4.79544 0.494156H18.4424C18.9426 0.500101 19.3326 0.578685 19.7899 0.768165C20.8981 1.25647 21.572 2.2504 21.572 3.35806C21.5702 3.92418 21.3849 4.47866 21.0349 4.9468L5.93542 25.2203C4.96864 26.5185 3.01206 26.8597 1.58799 25.9783C0.163664 25.097 -0.210642 23.3137 0.756402 22.0155L12.2141 6.63117H4.89626C3.00741 6.63117 1.46184 5.25338 1.46184 3.56952C1.46184 2.5606 2.0171 1.66179 2.86834 1.10318C3.40033 0.722152 4.0701 0.494156 4.79544 0.494156ZM13.079 20.3145H19.8447C21.5723 20.3145 22.9857 21.7029 22.9857 23.4C22.9857 25.097 21.5723 26.4857 19.8447 26.4857H13.079C11.3515 26.4857 9.93828 25.097 9.93828 23.4C9.93828 21.7029 11.3515 20.3145 13.079 20.3145Z" fill="#011C47"/>
<path fill-rule="evenodd" clip-rule="evenodd" d="M37.4094 0.50993C37.7136 0.496747 39.6301 0.501917 40.5393 0.754212C41.868 1.01633 42.897 2.16846 42.9591 3.59408C43.0317 5.26424 41.7496 6.67642 40.0952 6.74854C39.9719 6.75397 39.8501 6.75164 39.7299 6.74233C39.7304 6.76198 37.9246 6.57121 37.6738 6.58232C33.8568 6.74854 30.8973 9.97952 31.0635 13.7988C31.23 17.6179 34.4591 20.579 38.2759 20.4128C42.0928 20.2463 45.0524 17.0153 44.8859 13.196C44.8746 12.9308 44.6135 11.3506 44.0701 10.2034C43.8923 9.7815 43.7134 9.32758 43.6824 8.8522C43.5311 6.52287 45.3639 5.55272 46.5587 5.53851C47.7537 5.52429 48.6083 6.13047 49.184 6.92096C50.8024 9.47958 50.9389 12.641 50.9547 12.9316C51.3453 20.1799 45.709 26.1724 38.5403 26.4849C31.3719 26.7974 25.3072 21.2361 24.995 14.0633C24.6827 6.89046 30.2407 0.822455 37.4094 0.50993Z" fill="#011C47"/>
</g>
</g>
<defs>
<clipPath id="clip0_1_163">
<rect width="139" height="26" fill="white" transform="translate(0 0.5)"/>
</clipPath>
<clipPath id="clip1_1_163">
<rect width="139" height="26.0117" fill="white" transform="translate(0 0.494156)"/>
</clipPath>
</defs>
</svg>
